<?xml version="1.0" standalone="no"?>
<!DOCTYPE svg PUBLIC "-//W3C//DTD SVG 20010904//EN"
 "http://www.w3.org/TR/2001/REC-SVG-20010904/DTD/svg10.dtd">
<svg version="1.0" xmlns="http://www.w3.org/2000/svg"
 width="8000.000000pt" height="5567.000000pt" viewBox="0 0 8000.000000 5567.000000"
 preserveAspectRatio="xMidYMid meet">

<g transform="translate(0.000000,5567.000000) scale(0.100000,-0.100000)"
fill="#000000" stroke="none">
<path d="M54298 55143 c-1129 -3 -1318 -5 -1318 -17 0 -14 -104 -144 -127
-159 -7 -4 -13 -20 -13 -36 0 -17 -11 -38 -30 -56 -16 -16 -30 -34 -30 -39 0
-6 -16 -31 -35 -55 -19 -24 -35 -52 -35 -61 0 -9 -16 -37 -35 -61 -20 -25 -35
-55 -35 -71 0 -16 -12 -40 -30 -60 -16 -18 -30 -39 -30 -46 0 -8 -16 -32 -35
-55 -19 -22 -35 -51 -35 -65 0 -13 -16 -42 -35 -65 -44 -51 -45 -80 -5 -97 17
-7 30 -15 30 -19 -1 -3 -14 -22 -30 -41 -23 -26 -30 -44 -30 -77 0 -46 -5 -50
-34 -28 -28 21 -44 19 -71 -12 -20 -23 -24 -39 -25 -89 0 -55 -3 -63 -35 -94
-19 -19 -35 -44 -35 -56 0 -13 -7 -29 -15 -38 -19 -19 -19 -26 2 -41 16 -12
14 -17 -20 -58 -20 -25 -37 -53 -37 -62 0 -9 -16 -36 -35 -59 -19 -24 -35 -50
-35 -58 0 -8 -13 -27 -29 -42 l-29 -27 -6 36 c-4 21 -10 34 -13 31 -3 -3 -1
-25 6 -48 6 -24 58 -241 115 -483 57 -242 155 -652 217 -911 l113 -472 186
141 c278 212 443 337 675 512 209 158 355 269 660 500 458 347 996 755 1280
969 127 95 383 290 570 431 353 268 644 488 1095 829 146 110 259 192 251 183
-7 -10 -35 -33 -61 -52 -39 -29 -46 -39 -43 -59 5 -25 -19 -58 -134 -185 -18
-20 -33 -47 -33 -60 0 -23 -1 -23 -26 -6 -24 16 -26 16 -40 -2 -17 -22 -18
-105 -2 -121 9 -9 9 -15 0 -24 -7 -7 -12 -35 -12 -62 0 -45 -5 -56 -38 -92
-109 -120 -119 -134 -102 -144 10 -6 8 -15 -9 -38 -13 -19 -21 -45 -21 -71 0
-44 -6 -49 -36 -27 -17 13 -21 12 -36 -1 -10 -9 -18 -21 -18 -27 -1 -6 -19
-29 -40 -51 -22 -22 -40 -49 -40 -60 0 -11 -13 -33 -28 -50 -73 -78 -74 -111
-5 -152 l44 -26 -23 -26 c-13 -14 -33 -37 -45 -50 -23 -23 -27 -43 -23 -108 1
-19 -5 -40 -14 -49 -9 -9 -28 -31 -43 -50 -23 -31 -28 -33 -42 -20 -16 14 -34
19 -58 17 -8 -1 -13 -16 -13 -40 0 -28 -8 -49 -26 -71 -15 -17 -25 -32 -23
-34 2 -2 14 -9 27 -15 l23 -12 -46 -53 c-26 -31 -45 -63 -45 -77 0 -14 -17
-43 -40 -68 -35 -38 -40 -51 -40 -91 0 -36 -6 -54 -26 -76 -14 -16 -37 -45
-52 -64 -14 -19 -39 -48 -54 -64 -16 -17 -28 -39 -28 -55 0 -15 -12 -40 -27
-57 -16 -17 -46 -52 -67 -80 -22 -27 -50 -59 -63 -72 -12 -13 -23 -33 -23 -46
0 -13 -16 -41 -35 -62 -19 -22 -35 -42 -35 -46 0 -4 27 -23 60 -44 33 -20 60
-40 60 -43 0 -3 -23 -33 -52 -66 -34 -40 -58 -59 -70 -58 -20 3 -57 -34 -92
-91 -10 -17 -31 -46 -47 -64 -20 -23 -29 -43 -29 -68 0 -21 -9 -47 -20 -62
-15 -19 -17 -27 -9 -33 9 -5 5 -17 -15 -43 -15 -20 -31 -36 -37 -36 -5 0 -9
-26 -9 -59 0 -69 -11 -82 -66 -76 -50 6 234 -56 574 -126 145 -29 259 -55 253
-57 -21 -7 -11 -50 18 -74 l29 -25 -29 -33 c-18 -20 -29 -44 -29 -62 0 -21
-13 -46 -40 -78 -22 -26 -40 -52 -40 -56 0 -5 -18 -29 -41 -53 -39 -41 -41
-42 -59 -26 -19 17 -20 17 -39 -6 -12 -14 -20 -39 -21 -60 0 -21 -7 -42 -16
-50 -14 -11 -14 -13 0 -21 12 -6 16 -24 16 -62 0 -50 -4 -58 -45 -104 -41 -45
-45 -55 -45 -100 0 -35 -6 -57 -21 -76 l-22 -27 22 -15 c29 -21 27 -33 -19
-83 -40 -43 -40 -43 -66 -26 -24 16 -27 16 -45 -1 -10 -9 -19 -25 -19 -34 0
-10 -18 -38 -40 -63 -22 -25 -40 -53 -40 -64 0 -10 13 -29 30 -43 l30 -25 -31
-38 c-27 -33 -31 -44 -29 -95 1 -31 2 -88 1 -127 -1 -67 -4 -72 -41 -115 -30
-33 -40 -53 -40 -78 0 -21 -9 -42 -23 -58 l-24 -25 -37 22 -37 21 -29 -28
c-23 -23 -30 -38 -30 -70 0 -25 -6 -47 -16 -55 -14 -11 -14 -13 0 -21 22 -12
20 -17 -24 -68 -38 -42 -40 -47 -40 -113 0 -66 -2 -71 -42 -121 -23 -28 -43
-52 -44 -54 -1 -2 -11 2 -23 10 -18 11 -23 10 -35 -7 -9 -11 -16 -34 -16 -51
0 -19 -9 -39 -23 -53 l-24 -22 -64 37 c-84 47 -167 89 -154 77 6 -6 78 -47
160 -93 83 -45 296 -164 475 -263 308 -170 1312 -726 3540 -1959 542 -300
1203 -666 1470 -813 267 -147 670 -370 895 -495 381 -211 971 -537 1520 -840
761 -420 1451 -804 1460 -813 6 -5 -18 5 -52 22 -48 24 -63 28 -63 16 0 -8
-13 -30 -30 -48 -16 -19 -30 -41 -30 -48 -1 -10 -4 -9 -14 3 -12 16 -18 13
-67 -42 -33 -36 -55 -71 -56 -87 -1 -14 -16 -40 -33 -58 -19 -19 -30 -41 -30
-59 0 -15 -9 -41 -20 -56 l-20 -28 21 -36 21 -36 -38 -43 c-22 -23 -61 -69
-89 -101 -99 -117 -128 -146 -146 -146 -10 0 -27 -14 -39 -30 -19 -26 -21 -42
-19 -109 l3 -78 -49 -59 c-28 -32 -56 -63 -62 -67 -8 -5 -13 -29 -13 -56 0
-41 -5 -53 -35 -83 -32 -34 -34 -40 -34 -107 0 -65 -2 -74 -33 -112 l-33 -41
-20 26 c-20 25 -21 25 -33 6 -6 -11 -12 -27 -12 -36 0 -9 -16 -38 -35 -64 -19
-26 -35 -57 -35 -68 0 -11 -7 -25 -15 -32 -14 -12 -14 -15 0 -36 8 -13 15 -31
15 -39 0 -16 -70 -108 -99 -131 -11 -9 -11 -15 -1 -33 10 -20 9 -28 -9 -52
-12 -15 -21 -37 -21 -49 0 -11 -8 -28 -17 -38 -10 -10 -39 -43 -65 -74 -43
-51 -48 -61 -48 -107 0 -39 -4 -53 -18 -60 -13 -7 -23 -6 -30 1 -9 9 -12 6
-12 -11 0 -30 -13 -52 -56 -98 -42 -46 -59 -73 -44 -73 16 0 12 -19 -10 -37
-11 -10 -20 -27 -20 -39 0 -12 -16 -39 -35 -60 -29 -32 -35 -47 -35 -85 0 -38
-5 -50 -35 -79 -25 -24 -35 -43 -35 -64 0 -34 -18 -68 -26 -50 -3 6 -11 20
-19 30 -14 18 -14 18 -15 -6 0 -14 -9 -35 -19 -47 -18 -22 -27 -23 -212 -26
-107 -2 -3 -2 231 0 660 6 1392 36 1915 78 173 14 425 36 465 40 25 3 158 16
295 30 1130 116 2167 312 2866 541 l167 54 -20 63 c-10 34 -48 156 -84 270
-36 115 -64 210 -62 212 4 4 184 36 2043 365 589 104 1428 253 1865 330 884
157 1422 252 1580 280 58 10 264 46 458 80 l352 63 73 -69 c72 -69 655 -638
1272 -1243 182 -179 362 -350 402 -381 166 -133 437 -244 825 -340 533 -132
1233 -176 1708 -109 157 22 391 95 509 158 l34 18 -94 75 c-52 41 -697 549
-1434 1129 -1471 1158 -2328 1833 -2735 2154 -146 115 -708 558 -1250 984
-945 744 -1323 1041 -2500 1965 -294 231 -600 471 -679 533 -79 62 -149 113
-157 113 -7 0 -17 -6 -21 -14 -4 -8 -23 -30 -40 -50 -32 -34 -33 -38 -33 -124
0 -79 -3 -92 -23 -113 -69 -73 -129 -152 -130 -172 -2 -98 18 -325 31 -344 9
-15 10 -23 3 -23 -6 0 -11 4 -11 9 0 5 -179 183 -397 397 -473 462 -1109 1084
-1688 1650 -231 226 -546 534 -701 685 -154 151 -649 634 -1099 1074 -450 440
-959 937 -1132 1105 l-313 306 -173 53 c-94 29 -566 173 -1047 321 -2010 617
-4645 1425 -5500 1687 -261 80 -576 177 -700 216 l-225 71 -795 1 c-437 0
-1388 -1 -2112 -2z m1962 -3643 l25 -8 -25 0 c-14 0 -36 4 -50 8 l-25 8 25 0
c14 0 36 -4 50 -8z m67 -16 c-3 -3 -12 -4 -19 -1 -8 3 -5 6 6 6 11 1 17 -2 13
-5z m13983 -4019 c13 -14 21 -25 18 -25 -2 0 -15 11 -28 25 -13 14 -21 25 -18
25 2 0 15 -11 28 -25z m125 -125 c10 -11 16 -20 13 -20 -3 0 -13 9 -23 20 -10
11 -16 20 -13 20 3 0 13 -9 23 -20z m135 -125 c13 -14 21 -25 18 -25 -2 0 -15
11 -28 25 -13 14 -21 25 -18 25 2 0 15 -11 28 -25z m130 -130 c13 -14 21 -25
18 -25 -2 0 -15 11 -28 25 -13 14 -21 25 -18 25 2 0 15 -11 28 -25z m125 -125
c10 -11 16 -20 13 -20 -3 0 -13 9 -23 20 -10 11 -16 20 -13 20 3 0 13 -9 23
-20z m-6415 -3066 c0 -2 -13 2 -30 11 -16 9 -30 18 -30 21 0 2 14 -2 30 -11
17 -9 30 -18 30 -21z m110 -60 c0 -2 -9 0 -20 6 -11 6 -20 13 -20 16 0 2 9 0
20 -6 11 -6 20 -13 20 -16z m90 -50 c0 -2 -9 0 -20 6 -11 6 -20 13 -20 16 0 2
9 0 20 -6 11 -6 20 -13 20 -16z"/>
<path d="M38765 54696 c-671 -243 -1228 -445 -1238 -449 -15 -6 -7 -20 56 -94
40 -49 262 -317 492 -598 907 -1104 973 -1184 1113 -1360 51 -64 54 -70 15
-27 -43 46 -51 51 -62 38 -7 -8 -10 -24 -6 -36 5 -15 -2 -30 -24 -56 -17 -19
-31 -42 -31 -52 0 -9 -16 -35 -35 -56 -19 -22 -35 -46 -35 -53 0 -7 -16 -31
-36 -53 -26 -29 -34 -44 -26 -53 27 -33 24 -57 -13 -101 l-36 -45 40 -3 41 -3
-29 -34 c-24 -28 -28 -39 -20 -53 17 -31 -6 -48 -64 -48 -41 0 -56 -5 -78 -26
-26 -25 -27 -28 -12 -51 15 -22 14 -25 -9 -51 -49 -55 -50 -57 -37 -100 11
-39 11 -41 -25 -78 -25 -26 -34 -43 -31 -58 4 -14 -4 -33 -25 -56 -41 -48 -39
-60 12 -60 l42 0 -34 -35 c-24 -25 -30 -38 -23 -47 6 -7 13 -24 16 -37 6 -24
-8 -46 -100 -162 -24 -29 -31 -47 -27 -64 8 -32 -23 -65 -61 -65 -29 0 -59
-22 -79 -57 -4 -7 -1 -31 5 -53 12 -39 11 -42 -16 -70 l-29 -30 41 0 c35 0 42
-4 47 -24 3 -13 8 -30 11 -38 3 -7 -11 -31 -30 -53 -26 -29 -34 -46 -30 -62 5
-21 2 -23 -41 -23 -40 0 -45 -2 -39 -17 20 -47 17 -70 -14 -105 -17 -20 -31
-42 -31 -50 0 -7 -16 -29 -36 -47 -26 -25 -34 -40 -30 -56 4 -16 -4 -33 -29
-61 -40 -45 -42 -57 -15 -84 11 -11 17 -26 14 -34 -3 -7 2 -30 10 -50 14 -34
14 -37 -7 -60 -95 -101 -109 -118 -90 -106 54 37 291 200 413 286 74 51 137
94 139 94 6 0 -20 -31 -58 -72 l-35 -38 42 0 c48 0 52 -7 17 -40 -18 -17 -23
-30 -19 -47 5 -17 -2 -33 -29 -62 -33 -37 -34 -40 -24 -79 8 -32 8 -43 -4 -54
-8 -8 -40 -45 -73 -81 -32 -37 -66 -67 -75 -67 -10 0 -28 -11 -40 -24 -18 -19
-21 -28 -13 -42 8 -15 -1 -31 -50 -86 l-60 -68 49 6 c26 3 56 7 66 9 24 4 21
-6 -10 -41 -82 -89 -91 -103 -86 -124 7 -27 -23 -60 -54 -60 -20 0 -23 -4 -18
-20 3 -10 1 -28 -5 -39 -9 -17 -8 -20 5 -15 23 9 18 -3 -20 -45 l-36 -39 20
-56 19 -56 -76 -87 c-135 -154 -134 -152 -126 -187 3 -17 10 -35 15 -40 11
-12 12 -53 1 -58 -4 -1 -28 -30 -54 -63 -25 -34 -53 -66 -61 -73 -8 -7 -13
-21 -10 -31 3 -12 -8 -33 -31 -58 -26 -29 -34 -45 -29 -62 4 -17 -3 -32 -31
-60 -36 -37 -36 -38 -22 -73 15 -35 15 -37 -19 -81 -20 -27 -32 -52 -29 -63 3
-12 -8 -32 -31 -56 -20 -21 -33 -43 -29 -49 3 -6 14 -37 24 -70 l18 -58 -49
-53 c-54 -59 -58 -68 -29 -68 36 0 34 -27 -4 -72 -20 -23 -34 -48 -32 -55 3
-7 0 -13 -7 -13 -15 -1 -63 -45 -104 -97 -32 -40 -32 -42 -18 -76 14 -34 14
-35 -25 -80 -34 -39 -38 -46 -26 -62 10 -14 21 -17 53 -12 27 5 44 3 50 -6 23
-29 21 -46 -14 -86 -23 -27 -33 -48 -30 -61 3 -13 -17 -46 -65 -105 -67 -83
-69 -88 -58 -116 13 -31 11 -36 -38 -91 -13 -14 -21 -31 -18 -37 8 -12 59
-150 86 -231 11 -30 28 -80 38 -110 l19 -55 50 3 c56 4 46 16 93 -113 12 -33
26 -70 30 -82 8 -20 5 -22 -36 -29 -36 -5 -45 -10 -41 -23 6 -19 92 -259 100
-281 4 -8 16 -41 28 -73 l21 -59 50 4 50 3 69 -190 c38 -104 73 -199 78 -210
5 -11 13 -31 16 -45 4 -14 13 -38 20 -55 7 -16 18 -46 25 -65 7 -19 16 -44 20
-55 5 -11 11 -28 14 -39 5 -14 13 -17 39 -12 17 3 61 8 97 12 l65 6 39 -110
c22 -61 39 -114 38 -119 -1 -4 -41 -12 -89 -16 -48 -4 -89 -9 -91 -11 -1 -2
17 -57 41 -122 24 -66 61 -167 82 -226 50 -144 47 -141 118 -128 32 6 74 10
94 8 36 -3 36 -4 69 -95 18 -51 35 -97 38 -102 6 -9 -21 -15 -126 -27 -33 -3
-58 -11 -58 -18 0 -6 14 -47 31 -91 17 -44 36 -97 43 -117 6 -20 15 -40 19
-44 14 -14 7 -46 -19 -80 -15 -19 -24 -34 -21 -34 3 0 72 91 154 201 324 440
443 601 558 758 227 309 418 566 428 576 15 15 -2 -12 -42 -69 l-35 -48 42 4
c37 3 56 -4 35 -14 -5 -1 -30 -29 -57 -61 -44 -52 -47 -61 -38 -83 10 -21 8
-28 -18 -57 -23 -27 -35 -33 -58 -29 -26 3 -34 -2 -60 -40 -17 -23 -42 -55
-57 -71 l-26 -27 34 -99 34 -98 -33 -36 c-35 -37 -40 -55 -25 -85 5 -9 12 -25
15 -36 5 -15 13 -17 42 -13 l35 6 -26 -30 c-29 -36 -29 -36 -10 -82 19 -46 20
-40 -16 -82 -20 -22 -40 -35 -56 -35 -27 0 -68 -37 -148 -135 -28 -33 -53 -62
-57 -65 -7 -6 14 -89 32 -125 6 -11 16 -42 24 -68 14 -46 13 -49 -10 -76 -13
-16 -24 -32 -24 -35 0 -3 17 -6 38 -6 38 0 38 0 61 -64 13 -37 19 -71 15 -78
-4 -7 -35 -45 -68 -84 -108 -127 -121 -146 -122 -179 -1 -67 -2 -67 -166 56
-16 11 -28 18 -28 16 0 -2 56 -48 125 -101 76 -59 130 -94 138 -90 6 4 9 4 5
-1 -4 -4 -3 -14 3 -22 14 -16 33 -18 23 -1 -4 7 -3 8 5 4 6 -4 9 -11 6 -16 -7
-12 63 -62 77 -54 6 4 8 3 4 -4 -3 -6 174 -147 429 -342 386 -293 438 -329
453 -318 10 7 508 384 1106 838 598 454 1174 890 1279 970 472 358 1493 1132
1602 1215 66 50 458 347 870 660 413 313 1018 772 1345 1020 1150 873 1755
1330 1777 1345 12 8 194 145 404 304 210 158 379 284 376 279 -3 -5 -50 -43
-104 -84 -256 -194 -411 -317 -406 -323 4 -3 5 -27 4 -52 -1 -38 -7 -53 -36
-83 -22 -22 -35 -45 -35 -62 0 -14 -8 -35 -18 -47 l-19 -21 -48 24 c-27 14
-50 23 -52 21 -2 -2 53 -34 124 -71 70 -38 151 -80 178 -95 28 -15 174 -93
325 -172 1353 -715 2327 -1232 2335 -1240 6 -6 -13 2 -42 16 -61 30 -64 31
-57 11 8 -19 -7 -19 -32 0 -17 13 -22 11 -51 -23 -26 -29 -33 -46 -33 -78 0
-25 -6 -47 -16 -55 -14 -11 -14 -13 0 -21 27 -15 19 -66 -14 -100 -24 -24 -30
-38 -30 -74 0 -24 -3 -44 -6 -44 -3 0 -18 9 -33 20 l-28 19 -22 -24 c-24 -29
-27 -45 -7 -45 7 0 19 -6 25 -14 10 -12 6 -22 -21 -53 -73 -82 -98 -125 -98
-168 0 -31 -6 -47 -25 -65 -14 -13 -25 -35 -25 -49 0 -15 -13 -40 -30 -58 -17
-18 -30 -36 -30 -40 0 -4 -16 -25 -35 -46 -28 -31 -35 -46 -35 -80 -1 -37 -8
-50 -60 -107 -33 -36 -60 -74 -60 -85 -1 -11 -14 -36 -30 -55 -17 -19 -30 -42
-30 -53 0 -10 -11 -30 -25 -45 -18 -19 -25 -38 -25 -67 0 -34 -6 -47 -35 -75
-22 -21 -35 -44 -35 -59 0 -16 -17 -45 -45 -76 -25 -27 -45 -53 -45 -56 0 -3
11 -11 25 -17 26 -12 32 -26 15 -37 -5 -3 -10 -16 -10 -27 0 -12 -10 -32 -21
-44 -18 -19 -25 -21 -42 -12 -17 9 -23 6 -38 -13 -10 -13 -19 -32 -19 -43 0
-18 -16 -40 -103 -141 l-39 -44 36 -18 c20 -9 36 -20 36 -23 0 -4 -11 -17 -25
-30 -16 -15 -25 -34 -25 -55 0 -22 -10 -42 -33 -66 -57 -58 -87 -105 -87 -135
0 -18 -11 -43 -30 -64 -22 -27 -29 -45 -30 -79 0 -39 -7 -51 -60 -111 -33 -37
-60 -74 -60 -81 0 -8 -23 -43 -52 -78 -47 -57 -51 -64 -35 -76 25 -18 20 -56
-13 -95 -17 -19 -30 -42 -30 -51 0 -22 -39 -70 -54 -67 -18 4 -116 -112 -116
-137 0 -11 -14 -35 -30 -52 -19 -21 -34 -49 -39 -78 -5 -29 -19 -58 -36 -75
-24 -25 -26 -32 -15 -45 7 -8 19 -15 27 -15 9 0 -9 -27 -41 -64 -32 -35 -56
-73 -56 -85 0 -12 -13 -36 -30 -54 -19 -20 -30 -43 -30 -60 0 -20 -16 -48 -52
-90 -29 -34 -56 -63 -60 -65 -5 -2 -8 -20 -8 -41 0 -25 -9 -47 -28 -71 -29
-35 -46 -87 -31 -92 5 -2 5 -18 0 -35 -11 -39 -111 -163 -127 -158 -23 7 -54
-40 -54 -81 0 -34 -8 -49 -60 -107 -33 -38 -60 -75 -60 -83 0 -8 -13 -32 -29
-52 -16 -20 -32 -49 -35 -64 -4 -16 -11 -28 -16 -28 -6 0 -10 -7 -10 -15 0 -8
5 -15 10 -15 6 0 10 -18 10 -40 0 -33 -7 -48 -36 -80 -20 -22 -43 -49 -51 -60
-8 -11 -19 -18 -25 -14 -12 8 -117 -105 -118 -126 0 -8 -16 -33 -35 -54 -30
-34 -35 -47 -35 -91 0 -36 -5 -55 -18 -66 -9 -8 -27 -27 -38 -41 -21 -26 -26
-27 -135 -31 -63 -2 374 -2 971 1 597 2 1119 5 1160 7 41 2 208 6 370 9 1594
34 3128 155 4100 322 419 72 948 198 942 225 -4 14 -133 332 -412 1009 -76
184 -299 727 -495 1205 -365 888 -635 1546 -1330 3235 -216 525 -581 1412
-810 1970 -230 558 -486 1181 -570 1384 -84 204 -158 372 -166 374 -23 7
-1877 674 -3614 1300 -473 171 -1922 693 -3220 1160 -1298 468 -2910 1049
-3583 1291 -673 243 -1229 441 -1235 440 -7 -1 -561 -200 -1232 -443z m10305
-5740 c0 -2 -8 -10 -17 -17 -16 -13 -17 -12 -4 4 13 16 21 21 21 13z m-40 -30
c0 -2 -8 -10 -17 -17 -16 -13 -17 -12 -4 4 13 16 21 21 21 13z m-40 -30 c0 -2
-8 -10 -17 -17 -16 -13 -17 -12 -4 4 13 16 21 21 21 13z m-40 -30 c0 -2 -8
-10 -17 -17 -16 -13 -17 -12 -4 4 13 16 21 21 21 13z m-50 -40 c0 -2 -8 -10
-17 -17 -16 -13 -17 -12 -4 4 13 16 21 21 21 13z m-40 -30 c0 -2 -8 -10 -17
-17 -16 -13 -17 -12 -4 4 13 16 21 21 21 13z m-40 -30 c0 -2 -8 -10 -17 -17
-16 -13 -17 -12 -4 4 13 16 21 21 21 13z m-7890 -1880 c0 -2 -8 -10 -17 -17
-16 -13 -17 -12 -4 4 13 16 21 21 21 13z m10155 -386 c3 -6 -1 -7 -9 -4 -18 7
-21 14 -7 14 6 0 13 -4 16 -10z m80 -48 c-3 -3 -11 0 -18 7 -9 10 -8 11 6 5
10 -3 15 -9 12 -12z m-10565 -16 c0 -2 -8 -10 -17 -17 -16 -13 -17 -12 -4 4
13 16 21 21 21 13z m-73 -100 c-46 -65 -47 -86 -5 -86 22 0 23 -13 3 -30 -8
-7 -15 -19 -15 -27 0 -8 -30 -50 -67 -93 -58 -67 -73 -79 -100 -79 -47 -1 -59
-29 -35 -84 40 -90 40 -91 -38 -177 -38 -43 -70 -85 -70 -93 0 -9 -13 -30 -30
-47 -40 -41 -38 -50 10 -50 22 0 40 -4 40 -10 0 -5 -4 -10 -8 -10 -17 0 -54
-61 -44 -73 4 -7 14 -32 21 -57 7 -25 18 -51 24 -58 7 -9 3 -20 -14 -40 -13
-15 -30 -31 -36 -35 -7 -4 -13 -13 -13 -19 0 -6 -10 -20 -22 -32 -54 -51 -123
-141 -120 -155 2 -9 10 -31 18 -49 14 -30 14 -34 -11 -66 -15 -19 -31 -36 -37
-38 -7 -3 -8 -15 -5 -31 6 -23 12 -26 59 -29 57 -3 67 -14 41 -44 -53 -60 -54
-61 -44 -86 6 -17 6 -29 -1 -36 -8 -8 -70 47 -219 191 l-207 202 23 30 c12 17
217 296 455 620 238 325 444 605 458 623 43 56 35 34 -11 -32z"/>
<path d="M51971 53664 c0 -11 3 -14 6 -6 3 7 2 16 -1 19 -3 4 -6 -2 -5 -13z"/>
<path d="M52002 53540 c0 -8 4 -26 8 -40 6 -20 8 -21 8 -5 0 11 -3 29 -8 40
-5 12 -8 14 -8 5z"/>
<path d="M24310 53054 c-399 -206 -796 -411 -882 -456 -89 -46 -155 -85 -151
-91 3 -6 1 -7 -5 -3 -10 6 -212 -88 -212 -99 0 -6 88 32 113 50 36 25 54 19
28 -9 -25 -27 -24 -50 6 -113 15 -32 14 -33 -20 -75 -32 -39 -34 -45 -23 -72
10 -26 9 -31 -21 -64 -18 -20 -33 -42 -33 -49 0 -8 11 -39 24 -71 44 -105 43
-111 -15 -177 -28 -32 -57 -65 -65 -72 -17 -17 -18 -37 -4 -63 9 -16 4 -27
-25 -59 -31 -34 -34 -42 -25 -66 l10 -26 62 43 c35 24 65 45 68 48 12 12 99
70 104 70 4 0 11 -10 15 -22 7 -18 3 -31 -17 -58 -14 -19 -32 -39 -39 -45 -6
-5 -25 -27 -42 -48 -27 -34 -28 -41 -19 -69 10 -27 9 -33 -8 -44 -60 -40 -59
-38 -45 -83 14 -50 28 -29 -158 -241 -30 -35 -39 -64 -22 -74 4 -3 14 -26 21
-51 7 -25 17 -48 21 -51 18 -11 8 -47 -22 -85 -17 -21 -27 -39 -23 -39 5 0 43
27 86 60 43 34 78 59 78 56 0 -3 -18 -24 -40 -48 -24 -26 -38 -49 -34 -58 18
-48 14 -66 -19 -100 l-33 -34 16 -43 c9 -23 19 -45 23 -49 13 -14 7 -31 -27
-68 -31 -35 -33 -41 -23 -71 9 -32 7 -36 -57 -109 -36 -42 -66 -83 -66 -91 0
-10 -12 -15 -37 -16 -49 -1 94 -21 382 -53 127 -15 259 -30 295 -36 36 -5 97
-12 137 -16 67 -5 72 -8 83 -35 13 -31 6 -45 -38 -68 -27 -14 -27 -34 -2 -86
11 -22 20 -47 20 -55 0 -8 7 -28 15 -44 19 -36 19 -50 0 -66 -9 -7 -13 -15
-11 -18 3 -2 24 11 48 30 77 62 93 60 33 -4 -34 -38 -34 -38 -19 -75 8 -21 19
-46 24 -55 5 -9 6 -18 2 -20 -13 -5 -65 -78 -56 -78 5 0 22 11 38 25 16 14 32
25 36 25 4 0 20 11 36 25 16 14 32 25 37 25 12 0 8 -38 -5 -47 -7 -4 -21 -18
-32 -30 -17 -21 -17 -24 -1 -70 10 -26 23 -61 30 -78 8 -16 17 -42 20 -58 4
-15 11 -30 16 -33 26 -16 -8 -78 -86 -160 -82 -87 -107 -115 -140 -158 l-37
-49 28 -71 c15 -39 29 -73 31 -75 1 -2 16 9 34 23 35 30 48 30 60 -1 6 -17 0
-30 -26 -60 -37 -41 -39 -64 -9 -121 21 -41 17 -64 -20 -102 l-33 -35 18 -43
c11 -24 19 -50 19 -58 0 -16 43 5 305 151 148 82 225 122 210 108 -28 -27
-546 -303 -556 -297 -8 4 -9 3 -5 -4 8 -14 -90 -66 -106 -56 -7 4 -8 3 -4 -4
8 -14 -50 -46 -66 -36 -6 4 -8 3 -5 -4 4 -6 -41 -37 -110 -75 -65 -35 -604
-333 -1198 -662 -594 -329 -1163 -644 -1265 -700 -102 -56 -221 -122 -265
-147 -133 -75 -578 -323 -785 -437 -107 -60 -406 -225 -665 -368 -258 -143
-603 -333 -765 -423 -162 -89 -353 -195 -425 -235 -71 -40 -344 -191 -605
-335 -261 -144 -558 -309 -660 -365 -102 -56 -338 -187 -525 -290 -187 -103
-344 -192 -350 -198 -11 -11 67 30 322 169 94 52 174 94 178 94 3 0 -11 -19
-32 -41 -21 -23 -43 -47 -48 -53 -6 -6 -33 -38 -60 -70 -28 -33 -59 -69 -70
-81 -86 -90 -105 -119 -105 -159 0 -34 -7 -49 -41 -86 -60 -66 -69 -81 -69
-120 0 -34 -28 -78 -85 -136 -38 -38 -120 -137 -132 -158 -6 -11 -14 -32 -17
-46 -3 -14 -30 -52 -61 -85 -30 -33 -55 -65 -55 -70 0 -6 -25 -40 -55 -75 -30
-36 -55 -74 -55 -85 0 -11 -17 -38 -38 -60 -20 -22 -56 -65 -79 -96 -23 -31
-58 -74 -78 -95 -19 -22 -34 -46 -33 -54 2 -9 -23 -46 -55 -83 -53 -64 -57
-71 -57 -120 0 -56 -16 -81 -140 -216 -8 -9 -40 -46 -70 -81 -30 -35 -62 -72
-70 -80 -51 -55 -69 -81 -72 -107 -3 -26 -7 -29 -53 -34 -27 -3 6 -5 75 -3
309 7 731 12 696 7 -42 -5 -100 -57 -136 -123 -10 -19 -42 -59 -70 -88 l-51
-54 2 -93 3 -94 -35 -38 c-19 -22 -57 -66 -86 -98 -28 -33 -65 -76 -82 -95
-21 -24 -31 -46 -31 -68 0 -22 -10 -43 -32 -67 l-33 -35 -100 10 c-116 11
-202 11 -105 0 173 -21 231 -23 248 -8 9 8 60 39 112 68 132 74 523 295 593
336 32 19 60 34 63 34 2 0 -11 -17 -30 -37 -90 -99 -109 -121 -140 -168 -19
-27 -51 -69 -73 -91 -44 -48 -43 -47 -43 -76 0 -13 -18 -42 -42 -66 -41 -43
-41 -44 -97 -38 -31 3 -92 8 -136 10 -63 4 -69 3 -30 -3 28 -5 91 -11 140 -15
50 -4 140 -11 200 -16 150 -12 225 -18 325 -25 47 -3 148 -10 225 -15 488 -34
1362 -59 2110 -62 341 -1 574 -4 518 -5 l-103 -4 0 -194 0 -195 -50 0 c-27 0
-50 -4 -50 -10 0 -6 71 -10 193 -10 173 0 533 -9 1017 -25 227 -8 627 -27 945
-45 391 -24 1024 -75 1290 -105 470 -53 680 -81 980 -130 669 -108 1224 -255
1572 -415 45 -21 83 -36 85 -34 9 9 278 78 463 119 566 126 1432 243 2220 300
44 3 100 8 125 10 98 11 569 40 965 60 473 23 502 25 835 35 709 22 1029 29
1495 35 270 4 546 8 615 10 69 3 231 5 360 7 129 1 200 4 157 5 -68 3 -77 6
-67 18 7 8 16 15 20 15 4 0 33 16 64 36 l56 37 0 303 0 303 47 28 47 27 425 6
c344 5 247 7 -508 8 -1222 3 -2467 27 -3201 62 -493 24 -1029 54 -1150 65 -30
2 -89 7 -130 10 -41 3 -100 7 -130 10 -30 3 -89 7 -130 10 -158 12 -694 67
-887 90 -561 69 -1086 161 -1451 256 -86 23 -176 46 -200 52 -32 8 -42 15 -39
26 3 9 88 219 190 466 813 1977 1183 2876 1627 3955 281 685 531 1292 555
1350 24 58 123 299 221 535 97 237 218 531 269 655 51 124 175 425 275 670
101 245 284 690 407 989 179 435 221 547 211 556 -15 13 -104 82 -495 378
-150 114 -393 298 -540 410 -420 319 -1306 991 -1786 1356 -241 182 -443 334
-450 336 -7 3 -338 -164 -737 -371z m-583 -2960 c-3 -3 -12 -4 -19 -1 -8 3 -5
6 6 6 11 1 17 -2 13 -5z m91 -11 c-10 -2 -28 -2 -40 0 -13 2 -5 4 17 4 22 1
32 -1 23 -4z m962 -1098 c0 -2 -10 -9 -22 -15 -22 -11 -22 -10 -4 4 21 17 26
19 26 11z m-110 -60 c0 -2 -10 -9 -22 -15 -22 -11 -22 -10 -4 4 21 17 26 19
26 11z m-90 -50 c0 -2 -10 -9 -22 -15 -22 -11 -22 -10 -4 4 21 17 26 19 26 11z
m-90 -50 c0 -2 -13 -11 -30 -20 -38 -19 -40 -11 -2 9 31 17 32 18 32 11z m-75
-45 c-3 -5 -12 -10 -18 -10 -7 0 -6 4 3 10 19 12 23 12 15 0z m-35 -15 c0 -2
-13 -11 -30 -20 -38 -19 -40 -11 -2 9 31 17 32 18 32 11z m-70 -40 c0 -2 -13
-11 -30 -20 -38 -19 -40 -11 -2 9 31 17 32 18 32 11z"/>
<path d="M14950 52607 c-102 -101 -477 -468 -835 -817 -357 -349 -769 -752
-915 -895 -225 -221 -795 -779 -1855 -1815 -121 -118 -283 -276 -360 -350 -77
-74 -255 -248 -395 -385 -140 -138 -436 -428 -657 -644 -222 -216 -401 -397
-398 -401 6 -9 -70 -82 -78 -74 -3 4 -111 -96 -239 -221 -301 -295 -450 -444
-368 -370 36 33 144 136 240 230 273 266 356 343 330 308 -13 -18 -28 -33 -32
-33 -5 0 -7 -4 -4 -9 3 -5 -1 -11 -9 -15 -8 -3 -15 -11 -15 -18 0 -7 -14 -26
-30 -42 -17 -16 -30 -35 -30 -42 0 -7 -13 -26 -30 -42 -18 -19 -28 -36 -24
-46 3 -9 -4 -25 -20 -39 -14 -13 -26 -31 -26 -40 0 -13 -28 -53 -90 -126 -11
-13 -20 -31 -20 -38 0 -15 -81 -117 -110 -139 -11 -10 -12 -15 -2 -27 10 -12
7 -20 -18 -43 -16 -16 -30 -35 -30 -42 0 -7 -6 -19 -12 -26 -12 -12 -28 -33
-62 -80 -17 -24 -36 -13 -37 22 0 15 -3 22 -5 16 -3 -6 7 -110 20 -230 14
-120 35 -307 47 -414 12 -107 22 -196 23 -197 1 -1 491 149 1090 333 599 184
1090 333 1092 331 2 -2 -53 -21 -121 -43 -107 -33 -126 -42 -132 -62 -3 -13 0
-29 6 -35 21 -21 15 -31 -66 -125 -31 -35 -43 -72 -24 -72 19 0 20 -33 2 -54
-70 -76 -100 -112 -101 -119 0 -4 7 -19 16 -33 16 -24 16 -26 -15 -65 -24 -29
-30 -43 -22 -52 7 -9 1 -23 -25 -51 -19 -20 -59 -69 -90 -107 l-55 -69 25 -43
26 -43 -30 -35 c-16 -19 -29 -38 -30 -42 0 -5 -12 -24 -26 -43 -15 -19 -24
-37 -21 -40 3 -4 -8 -20 -24 -38 -25 -26 -29 -36 -24 -65 5 -27 2 -38 -20 -61
-22 -23 -25 -32 -16 -48 8 -16 5 -24 -19 -47 -17 -16 -30 -34 -30 -42 0 -7
-13 -27 -29 -45 -23 -27 -26 -36 -17 -51 7 -11 8 -20 1 -25 -5 -4 -33 -35 -62
-68 -49 -57 -51 -63 -40 -88 7 -14 16 -26 20 -26 4 0 -6 -15 -22 -32 -18 -20
-31 -44 -31 -59 0 -16 -11 -37 -25 -50 -13 -13 -25 -28 -25 -33 0 -5 -10 -19
-22 -31 -33 -31 -83 -88 -92 -102 -4 -7 5 -33 20 -58 l27 -46 -25 -27 c-14
-15 -34 -38 -44 -51 -11 -13 -27 -31 -36 -39 -11 -10 -15 -24 -12 -38 4 -14
-3 -30 -20 -49 -31 -33 -30 -30 -10 -65 16 -27 16 -28 -14 -61 -59 -66 -74
-85 -109 -137 -32 -47 -34 -56 -23 -77 11 -20 9 -27 -14 -58 -14 -18 -26 -38
-26 -44 0 -5 -14 -23 -31 -41 -17 -17 -28 -36 -25 -41 4 -5 -8 -26 -25 -46
-24 -27 -29 -39 -20 -48 17 -17 13 -42 -11 -69 -76 -83 -88 -99 -88 -113 0 -8
5 -15 10 -15 6 0 10 -7 10 -15 0 -8 -4 -15 -8 -15 -5 0 -18 -14 -31 -31 -17
-23 -20 -33 -11 -44 11 -14 -1 -31 -70 -104 -40 -42 -42 -48 -25 -81 16 -32
16 -33 -11 -61 -35 -36 -38 -31 -49 86 -5 44 -10 73 -12 65 -2 -8 26 -267 62
-575 36 -308 75 -639 85 -735 29 -256 27 -248 53 -244 12 2 101 13 197 24 863
103 1561 254 1973 427 l87 37 40 126 c21 69 105 337 185 595 81 259 189 605
240 770 401 1284 730 2341 941 3020 96 308 183 585 194 615 10 30 105 332 210
670 187 600 248 796 599 1920 93 300 201 646 239 770 39 124 145 466 237 760
461 1480 555 1783 552 1786 -1 2 -86 -79 -187 -179z m-3620 -6347 c-8 -5 -22
-9 -30 -9 -10 0 -8 3 5 9 27 12 43 12 25 0z m-125 -40 c-11 -5 -27 -9 -35 -9
-9 0 -8 4 5 9 11 5 27 9 35 9 9 0 8 -4 -5 -9z m-65 -20 c-8 -5 -22 -9 -30 -9
-10 0 -8 3 5 9 27 12 43 12 25 0z"/>
<path d="M22910 52330 c-9 -6 -10 -10 -3 -10 6 0 15 5 18 10 8 12 4 12 -15 0z"/>
<path d="M22858 52304 c-38 -20 -36 -28 2 -9 17 9 30 18 30 20 0 7 -1 6 -32
-11z"/>
<path d="M29685 49896 c17 -15 71 -58 122 -97 51 -38 95 -74 99 -80 3 -6 6
-60 5 -120 l-2 -110 35 15 36 15 0 -77 c0 -77 0 -77 -33 -92 l-32 -15 -3 -258
-2 -258 30 17 c16 10 31 16 34 13 3 -2 6 -51 7 -107 l2 -104 -112 -139 c-61
-76 -109 -139 -107 -139 12 0 276 332 271 340 -4 6 -1 9 5 8 18 -4 484 563
470 572 -6 4 -128 95 -270 204 -143 108 -262 196 -265 196 -3 0 -3 -5 1 -12 4
-7 3 -8 -5 -4 -6 4 -9 11 -6 16 4 7 -148 127 -270 213 -37 27 -38 27 -10 3z"/>
<path d="M38012 49549 c-23 -17 -42 -33 -42 -35 0 -3 20 9 45 27 40 29 51 39
42 39 -2 0 -22 -14 -45 -31z"/>
<path d="M54660 49296 c0 -2 7 -7 16 -10 8 -3 12 -2 9 4 -6 10 -25 14 -25 6z"/>
<path d="M54740 49256 c0 -3 9 -10 20 -16 11 -6 20 -8 20 -6 0 3 -9 10 -20 16
-11 6 -20 8 -20 6z"/>
<path d="M70037 48755 c-17 -24 -17 -25 20 -59 l38 -35 3 46 c2 25 1 52 -2 59
-8 22 -39 16 -59 -11z"/>
<path d="M36779 48669 l-24 -20 28 17 c15 9 27 18 27 20 0 8 -8 4 -31 -17z"/>
<path d="M36629 48563 c-13 -16 -12 -17 4 -4 16 13 21 21 13 21 -2 0 -10 -8
-17 -17z"/>
<path d="M29734 48328 l-19 -23 23 19 c12 11 22 21 22 23 0 8 -8 2 -26 -19z"/>
<path d="M29684 48268 l-19 -23 23 19 c12 11 22 21 22 23 0 8 -8 2 -26 -19z"/>
<path d="M70143 48175 c0 -27 2 -38 4 -22 2 15 2 37 0 50 -2 12 -4 0 -4 -28z"/>
<path d="M70152 48060 c0 -14 2 -19 5 -12 2 6 2 18 0 25 -3 6 -5 1 -5 -13z"/>
<path d="M9490 47269 c-38 -45 -38 -47 3 -10 20 19 37 36 37 38 0 10 -18 -3
-40 -28z"/>
<path d="M8801 46424 c0 -11 3 -14 6 -6 3 7 2 16 -1 19 -3 4 -6 -2 -5 -13z"/>
<path d="M6139 45701 c-262 -207 -631 -497 -820 -646 -189 -148 -386 -304
-439 -346 -52 -41 -340 -268 -640 -504 -300 -236 -588 -463 -641 -504 -52 -42
-246 -194 -430 -339 -1260 -989 -2387 -1876 -2402 -1891 -18 -18 -15 -20 90
-64 218 -92 397 -130 707 -147 299 -18 724 5 1046 55 476 75 909 214 1142 368
85 56 94 64 1118 1066 239 234 725 709 1080 1056 355 346 753 736 886 868
l241 238 -223 576 c-123 317 -227 580 -231 584 -5 3 -222 -163 -484 -370z"/>
<path d="M15788 44004 c-27 -13 -48 -27 -48 -29 0 -3 23 6 50 20 28 14 50 28
50 30 0 7 1 7 -52 -21z"/>
<path d="M15688 43949 c-21 -11 -38 -22 -38 -24 0 -3 18 4 40 15 22 11 40 23
40 25 0 7 0 7 -42 -16z"/>
<path d="M37590 43926 c0 -2 8 -10 18 -17 15 -13 16 -12 3 4 -13 16 -21 21
-21 13z"/>
<path d="M15548 43872 c-48 -26 -91 -52 -95 -57 -9 -10 168 84 182 96 17 16 0
9 -87 -39z"/>
<path d="M37670 43866 c0 -2 8 -10 18 -17 15 -13 16 -12 3 4 -13 16 -21 21
-21 13z"/>
<path d="M15408 43794 c-38 -20 -36 -28 2 -9 17 9 30 18 30 20 0 7 -1 6 -32
-11z"/>
<path d="M37840 43736 c0 -2 8 -10 18 -17 15 -13 16 -12 3 4 -13 16 -21 21
-21 13z"/>
<path d="M37880 43706 c0 -2 8 -10 18 -17 15 -13 16 -12 3 4 -13 16 -21 21
-21 13z"/>
<path d="M15194 43674 c-18 -14 -18 -15 4 -4 12 6 22 13 22 15 0 8 -5 6 -26
-11z"/>
<path d="M37920 43676 c0 -2 8 -10 18 -17 15 -13 16 -12 3 4 -13 16 -21 21
-21 13z"/>
<path d="M37960 43646 c0 -2 8 -10 18 -17 15 -13 16 -12 3 4 -13 16 -21 21
-21 13z"/>
<path d="M38000 43616 c0 -2 8 -10 18 -17 15 -13 16 -12 3 4 -13 16 -21 21
-21 13z"/>
<path d="M38040 43586 c0 -2 8 -10 18 -17 15 -13 16 -12 3 4 -13 16 -21 21
-21 13z"/>
<path d="M38090 43547 c0 -7 241 -190 245 -186 2 2 -35 33 -82 69 -130 99
-163 122 -163 117z"/>
<path d="M38550 43197 c0 -3 35 -30 78 -61 42 -32 62 -44 44 -28 -40 35 -122
95 -122 89z"/>
<path d="M38710 43076 c0 -2 8 -10 18 -17 15 -13 16 -12 3 4 -13 16 -21 21
-21 13z"/>
<path d="M9212 43045 c0 -16 2 -22 5 -12 2 9 2 23 0 30 -3 6 -5 -1 -5 -18z"/>
<path d="M9222 42960 c0 -19 2 -27 5 -17 2 9 2 25 0 35 -3 9 -5 1 -5 -18z"/>
<path d="M9232 42880 c0 -19 2 -27 5 -17 2 9 2 25 0 35 -3 9 -5 1 -5 -18z"/>
<path d="M75859 42008 c14 -19 15 -17 -60 -103 -64 -73 -176 -203 -199 -229
-14 -17 -36 -42 -50 -57 -14 -15 -47 -53 -75 -85 -113 -131 -99 -122 -229
-154 -66 -17 -129 -31 -140 -31 -17 -1 -17 -2 -4 -6 19 -5 214 41 378 88 237
70 457 172 593 276 32 25 57 46 55 47 -2 1 -66 62 -143 136 -76 74 -133 127
-126 118z m-284 -490 c-31 -35 -66 -67 -78 -71 -13 -5 8 22 48 62 87 88 107
93 30 9z"/>
<path d="M75058 41333 c7 -3 16 -2 19 1 4 3 -2 6 -13 5 -11 0 -14 -3 -6 -6z"/>
<path d="M74940 41317 c-30 -5 -50 -11 -45 -13 6 -2 42 2 80 10 39 7 59 14 45
14 -14 0 -50 -5 -80 -11z"/>
<path d="M74790 41290 c-34 -7 -34 -7 -5 -8 17 0 41 4 55 8 33 11 0 11 -50 0z"/>
<path d="M74703 41273 c9 -2 25 -2 35 0 9 3 1 5 -18 5 -19 0 -27 -2 -17 -5z"/>
<path d="M74638 41263 c6 -2 18 -2 25 0 6 3 1 5 -13 5 -14 0 -19 -2 -12 -5z"/>
<path d="M74478 41243 c7 -3 16 -2 19 1 4 3 -2 6 -13 5 -11 0 -14 -3 -6 -6z"/>
<path d="M74403 41233 c9 -2 23 -2 30 0 6 3 -1 5 -18 5 -16 0 -22 -2 -12 -5z"/>
<path d="M14438 41203 c12 -2 30 -2 40 0 9 3 -1 5 -23 4 -22 0 -30 -2 -17 -4z"/>
<path d="M33518 41203 c12 -2 32 -2 45 0 12 2 2 4 -23 4 -25 0 -35 -2 -22 -4z"/>
<path d="M33618 41203 c12 -2 32 -2 45 0 12 2 2 4 -23 4 -25 0 -35 -2 -22 -4z"/>
<path d="M14538 41193 c12 -2 30 -2 40 0 9 3 -1 5 -23 4 -22 0 -30 -2 -17 -4z"/>
<path d="M33193 41193 c26 -2 67 -2 90 0 23 2 2 3 -48 3 -49 0 -68 -1 -42 -3z"/>
<path d="M73988 41193 c7 -3 16 -2 19 1 4 3 -2 6 -13 5 -11 0 -14 -3 -6 -6z"/>
<path d="M14618 41183 c12 -2 30 -2 40 0 9 3 -1 5 -23 4 -22 0 -30 -2 -17 -4z"/>
<path d="M32858 41183 c23 -2 61 -2 85 0 23 2 4 4 -43 4 -47 0 -66 -2 -42 -4z"/>
<path d="M15018 41143 c6 -2 18 -2 25 0 6 3 1 5 -13 5 -14 0 -19 -2 -12 -5z"/>
<path d="M61025 40569 c-411 -8 -900 -24 -1220 -39 -318 -16 -736 -40 -775
-45 -19 -2 -84 -7 -145 -10 -60 -3 -117 -8 -125 -10 -8 -2 -64 -6 -125 -10
-60 -3 -117 -8 -125 -10 -8 -2 -55 -6 -105 -10 -49 -3 -101 -8 -115 -10 -14
-2 -56 -7 -95 -10 -661 -58 -1508 -196 -2000 -325 -263 -70 -566 -174 -702
-243 l-50 -26 -64 20 c-429 135 -1339 285 -2204 364 -93 8 -192 18 -220 20
-731 68 -1928 124 -3105 145 -554 10 -2140 11 -1990 1 76 -5 86 -8 96 -30 7
-13 24 -31 39 -41 39 -26 75 -94 75 -144 0 -23 -5 -78 -10 -123 -11 -90 -14
-82 69 -255 22 -48 41 -89 41 -92 0 -2 22 -50 48 -107 l48 -104 -8 -120 c-10
-157 8 -216 80 -254 12 -6 22 -16 22 -21 0 -5 12 -34 26 -65 19 -39 25 -66 22
-92 -4 -31 6 -60 49 -151 63 -133 66 -153 23 -122 l-30 21 0 -34 c0 -19 11
-59 25 -89 19 -40 25 -70 25 -121 0 -52 6 -79 25 -117 14 -27 25 -56 25 -65 0
-8 18 -28 39 -43 61 -42 72 -69 65 -149 -6 -74 -9 -67 110 -317 38 -78 43 -98
39 -137 -4 -36 0 -56 21 -97 14 -28 26 -64 26 -80 0 -15 12 -52 26 -81 23 -46
26 -61 21 -118 -5 -62 -3 -69 50 -181 l55 -117 -6 -75 c-6 -68 -4 -80 19 -124
17 -34 26 -68 26 -105 1 -38 9 -69 26 -101 19 -34 25 -59 24 -102 -1 -44 5
-72 25 -115 14 -32 40 -87 56 -123 17 -36 41 -88 55 -116 23 -48 24 -55 14
-128 -14 -96 -14 -171 -1 -194 5 -9 25 -53 44 -97 18 -44 50 -114 69 -156 20
-42 34 -85 31 -96 -4 -15 17 -34 102 -93 183 -129 158 -117 -49 22 -299 202
-617 419 -673 459 -27 20 -263 182 -524 359 -261 178 -537 365 -612 417 -76
51 -138 92 -138 89 0 -2 35 -28 77 -58 42 -29 90 -66 106 -81 28 -27 29 -30
22 -92 -6 -61 -5 -67 40 -162 25 -54 50 -105 54 -114 5 -9 6 -43 2 -77 -7 -59
-6 -64 42 -164 27 -57 53 -125 57 -153 5 -27 18 -69 29 -92 22 -44 25 -73 15
-135 l-6 -36 -24 26 -23 27 -1 -47 c0 -67 6 -79 37 -67 14 5 27 8 29 6 4 -4
-170 -84 -506 -232 -196 -87 -341 -160 -216 -109 12 4 13 -5 9 -53 -5 -55 -2
-65 47 -168 l52 -110 -6 -130 c-5 -126 -5 -133 19 -177 17 -33 25 -63 25 -99
0 -41 10 -71 47 -148 42 -84 47 -105 49 -169 2 -53 9 -87 28 -127 23 -50 25
-64 19 -133 -6 -82 -2 -93 79 -257 16 -32 20 -58 19 -133 -1 -91 0 -95 45
-190 29 -60 49 -118 54 -152 3 -30 16 -76 27 -102 20 -43 21 -57 14 -165 l-8
-118 32 -70 c63 -136 75 -164 75 -180 0 -14 23 -68 86 -199 13 -28 22 -57 19
-66 -3 -8 -9 -80 -15 -160 l-9 -144 28 -55 c74 -144 84 -172 77 -228 -5 -45
-2 -61 19 -101 14 -26 25 -52 25 -59 0 -6 11 -34 25 -61 19 -37 25 -66 25
-112 0 -48 6 -76 26 -117 22 -45 26 -63 21 -107 -5 -46 -1 -63 24 -112 28 -58
29 -61 22 -170 -6 -111 -6 -112 27 -180 39 -84 78 -166 120 -258 28 -62 32
-67 48 -54 22 19 42 31 42 24 0 -3 -53 -45 -117 -93 -493 -369 -861 -649 -878
-666 l-20 -20 27 16 c31 19 34 15 44 -65 4 -29 10 -60 15 -69 16 -31 31 -155
30 -251 -1 -86 1 -103 25 -150 19 -39 29 -83 39 -170 8 -69 22 -134 34 -160
l19 -43 -5 63 c-3 34 -3 62 0 62 5 0 48 -85 80 -160 6 -14 9 -46 8 -71 -2 -33
4 -59 21 -90 22 -42 23 -53 20 -201 -2 -100 1 -159 8 -163 6 -4 10 -60 10
-145 0 -133 1 -141 32 -211 25 -59 32 -88 32 -144 1 -55 7 -80 27 -120 l27
-50 -1 35 c-3 85 4 200 11 200 10 0 53 -102 53 -126 -1 -115 -12 -344 -22
-445 -12 -125 -11 -128 12 -184 21 -51 24 -55 30 -34 4 13 8 44 9 69 1 25 5
54 9 64 13 33 41 -43 41 -112 0 -45 7 -74 26 -113 22 -43 25 -60 20 -103 -5
-44 -1 -61 24 -113 l29 -62 -11 -148 c-10 -135 -9 -152 8 -188 l18 -40 7 35
c4 19 12 64 19 100 17 97 19 100 39 60 13 -28 16 -60 15 -170 -2 -74 -7 -155
-12 -179 -11 -45 -8 -54 80 -239 20 -42 20 -47 6 -270 l-15 -227 29 -59 c16
-32 26 -61 23 -64 -2 -3 2 -17 10 -31 7 -14 26 -53 41 -86 15 -33 44 -98 66
-143 31 -69 38 -95 38 -147 0 -45 7 -78 24 -116 23 -52 24 -59 16 -179 -8
-121 -8 -127 17 -180 67 -149 73 -168 73 -240 0 -51 6 -82 25 -125 14 -32 25
-65 23 -75 -2 -10 22 -49 52 -86 30 -38 72 -90 93 -116 21 -27 36 -48 33 -48
-5 0 -208 247 -1831 2230 -511 624 -1032 1261 -1158 1415 -126 154 -239 289
-250 300 l-21 20 15 -20 c9 -11 71 -88 137 -171 l122 -152 -4 -91 c-4 -80 -2
-98 19 -144 l23 -52 7 39 8 40 24 -50 c21 -42 23 -54 14 -85 -13 -45 -14 -92
-2 -104 6 -6 6 -43 0 -95 -9 -83 -9 -87 19 -145 l30 -60 12 60 c6 33 16 70 21
83 5 13 9 35 9 49 0 21 3 24 12 15 8 -8 11 -47 9 -117 -2 -92 1 -112 20 -151
19 -40 21 -54 14 -117 -14 -128 -7 -203 22 -266 21 -43 27 -72 28 -126 0 -53
6 -82 24 -118 19 -39 23 -58 18 -101 -4 -43 -1 -64 19 -106 13 -29 24 -61 24
-71 0 -11 11 -42 25 -71 18 -38 25 -68 25 -113 0 -63 28 -136 130 -338 24 -47
28 -67 24 -100 -5 -33 0 -53 20 -93 21 -42 26 -66 26 -124 0 -75 7 -97 76
-235 22 -42 24 -58 19 -105 -5 -47 -2 -63 21 -110 l26 -54 -32 -58 c-19 -36
-30 -69 -28 -85 3 -26 5 -24 29 25 l27 54 -3 -112 c-2 -62 -8 -117 -14 -123
-7 -7 -7 -16 1 -30 5 -11 7 -37 4 -59 -4 -26 -1 -48 10 -70 l17 -32 18 23 c11
13 19 29 19 36 0 24 24 22 37 -3 19 -36 16 -63 -12 -105 -25 -36 -25 -38 -9
-69 l16 -31 17 22 17 22 16 -34 c17 -35 17 -162 1 -178 -11 -11 -6 -235 5
-255 7 -13 16 -5 46 40 21 32 42 53 48 50 18 -12 4 -151 -19 -182 -20 -27 -20
-28 -2 -62 16 -29 18 -48 13 -115 -7 -86 -10 -76 74 -255 14 -30 26 -73 27
-95 1 -22 11 -61 24 -86 20 -42 22 -59 19 -175 -3 -128 -3 -130 30 -199 18
-38 40 -82 48 -97 8 -14 14 -35 14 -47 0 -11 8 -37 19 -58 10 -21 34 -71 52
-111 l32 -73 -10 -156 c-7 -93 -7 -163 -2 -172 5 -9 29 -60 53 -114 40 -87 44
-103 39 -147 -4 -39 -1 -60 14 -93 92 -192 93 -194 93 -253 0 -41 8 -75 25
-111 19 -42 23 -63 18 -101 -4 -34 -1 -58 10 -78 15 -29 14 -32 -6 -55 -20
-22 -22 -35 -22 -134 0 -109 1 -111 42 -196 23 -48 46 -88 51 -90 6 -2 -12
-61 -39 -133 -28 -70 -48 -130 -46 -132 2 -2 42 94 90 213 47 120 270 686 495
1258 225 572 440 1117 477 1210 36 94 157 400 267 680 159 406 997 2539 1493
3800 48 121 293 744 545 1385 252 641 571 1453 710 1805 139 352 276 701 305
775 29 74 190 484 358 910 168 426 452 1149 632 1605 1120 2847 1528 3876
1532 3871 2 -2 -19 -60 -46 -129 l-49 -127 27 -52 c85 -167 137 -314 61 -173
-19 36 -38 65 -42 65 -5 0 -8 -30 -8 -67 0 -61 5 -78 47 -163 42 -86 47 -104
53 -190 4 -57 13 -107 23 -125 62 -117 107 -231 107 -274 0 -27 8 -63 20 -86
15 -29 20 -59 20 -116 0 -65 5 -86 29 -136 16 -32 48 -98 70 -148 23 -49 51
-108 64 -130 19 -34 22 -59 25 -174 3 -102 8 -141 20 -159 9 -14 19 -51 23
-83 4 -38 22 -90 52 -151 79 -163 87 -185 87 -238 0 -29 6 -66 14 -83 8 -18
29 -66 46 -107 17 -41 38 -90 47 -109 8 -19 19 -62 23 -95 4 -34 17 -81 29
-104 11 -22 21 -47 21 -54 0 -12 51 -135 106 -256 13 -29 24 -67 24 -85 0 -17
12 -54 25 -82 20 -40 25 -66 25 -126 0 -59 6 -89 24 -130 22 -51 111 -240 142
-303 8 -16 14 -46 14 -67 0 -20 9 -58 20 -84 16 -37 20 -69 20 -151 0 -88 4
-111 24 -156 13 -29 27 -63 31 -76 4 -13 36 -84 71 -158 46 -96 64 -145 64
-174 0 -23 9 -58 20 -80 11 -22 20 -57 20 -78 0 -22 12 -64 29 -98 57 -118 60
-129 64 -219 3 -83 7 -98 50 -186 25 -53 49 -109 52 -125 7 -34 36 -183 64
-334 26 -137 35 -165 76 -246 19 -37 35 -74 35 -81 0 -8 9 -31 20 -53 11 -22
20 -53 20 -69 0 -16 21 -74 46 -128 45 -94 47 -101 45 -183 -2 -87 8 -117 79
-252 11 -20 20 -53 20 -73 0 -21 6 -49 14 -63 8 -15 28 -56 44 -92 16 -36 39
-86 51 -111 12 -26 21 -65 21 -92 0 -31 9 -65 25 -97 14 -27 25 -65 25 -84 0
-20 9 -51 20 -71 11 -20 20 -54 20 -76 0 -22 8 -57 19 -79 20 -42 16 -49 -32
-51 -12 0 -17 -3 -11 -5 5 -2 99 11 209 31 210 37 240 40 230 26 -3 -5 -1 -12
5 -16 5 -3 10 -13 10 -22 0 -9 24 -66 54 -127 96 -198 106 -222 106 -255 0
-17 4 -39 10 -49 31 -56 78 -172 83 -202 3 -19 22 -71 43 -115 20 -44 38 -82
39 -85 2 -7 89 -191 132 -277 22 -46 33 -81 30 -94 -5 -18 2 -14 35 17 36 34
34 30 -13 -25 -30 -36 -294 -335 -588 -665 -294 -331 -577 -649 -630 -708 -52
-60 -97 -108 -101 -108 -3 0 -97 71 -210 158 -113 87 -549 423 -970 746 -421
324 -774 596 -785 605 -18 14 -19 14 -5 -1 8 -9 57 -50 108 -91 l94 -74 2 -54
c2 -41 14 -78 49 -151 30 -61 47 -111 47 -133 0 -22 9 -49 21 -67 18 -25 22
-43 21 -107 -2 -59 3 -87 18 -119 11 -23 25 -64 30 -91 5 -27 18 -67 30 -88
17 -31 20 -56 20 -150 0 -91 4 -120 19 -150 50 -100 54 -113 48 -175 -3 -39 0
-74 9 -100 10 -29 14 -92 14 -222 1 -159 3 -185 20 -216 l19 -35 1 37 c0 59
15 52 45 -20 16 -37 32 -71 37 -77 4 -5 8 -41 8 -81 0 -61 5 -84 34 -146 103
-220 96 -196 96 -351 0 -115 -3 -144 -16 -161 -9 -12 32 29 91 89 l107 110
-108 -125 c-60 -69 -143 -163 -185 -210 -105 -117 -465 -522 -569 -640 -47
-53 -119 -135 -161 -181 -41 -46 -219 -246 -394 -444 -176 -198 -322 -362
-325 -365 -3 -3 -16 -19 -30 -36 -14 -16 18 15 71 70 54 56 99 99 101 96 9
-10 88 -187 88 -198 0 -29 64 -201 115 -306 77 -162 77 -159 61 -204 -13 -36
-12 -45 18 -135 l32 -96 19 45 c23 55 18 63 80 -151 49 -169 110 -374 161
-545 71 -232 70 -225 45 -273 l-21 -42 21 -70 c11 -38 27 -90 34 -115 7 -25
23 -76 35 -115 11 -38 28 -95 36 -125 40 -145 89 -264 105 -255 5 4 9 10 9 15
0 4 11 27 24 51 l24 42 36 -77 c20 -42 43 -105 53 -140 16 -62 16 -63 -7 -111
-23 -47 -23 -49 -6 -94 21 -54 50 -149 76 -242 9 -37 46 -128 80 -203 l63
-136 23 37 c13 21 24 44 24 51 0 21 14 13 27 -15 7 -15 27 -72 44 -127 17 -56
34 -112 38 -126 6 -18 2 -37 -15 -70 l-24 -45 20 -60 c10 -33 29 -94 40 -135
12 -41 30 -102 40 -135 11 -33 28 -94 40 -135 12 -41 25 -84 30 -95 9 -19 17
-48 55 -192 9 -32 20 -66 25 -75 5 -9 12 -35 16 -57 5 -31 2 -48 -16 -76 -19
-31 -21 -41 -12 -73 6 -20 18 -64 27 -97 9 -33 20 -69 25 -80 5 -11 19 -54 30
-95 12 -41 25 -86 30 -100 5 -14 19 -59 31 -100 l21 -75 20 40 21 39 12 -34
c7 -19 25 -71 38 -115 l25 -80 -62 -110 c-75 -130 -92 -164 -79 -150 6 6 134
222 285 480 152 259 315 538 363 620 531 906 3090 5280 4138 7070 77 132 184
314 237 405 53 91 285 487 515 880 230 393 471 805 535 915 65 110 235 403
380 650 145 248 316 541 381 653 224 382 357 608 546 932 552 943 2075 3547
2194 3750 75 129 322 550 547 935 l409 700 809 215 c1264 337 1396 371 1401
367 2 -3 -8 -7 -22 -11 -14 -4 -25 -12 -25 -19 0 -16 19 -87 30 -112 4 -11 13
-38 18 -60 6 -22 20 -71 31 -110 11 -38 27 -95 35 -125 12 -42 16 -106 16
-273 0 -119 4 -225 9 -235 5 -9 28 -56 50 -104 l41 -86 0 -131 c0 -131 0 -133
36 -209 20 -42 49 -106 65 -142 17 -36 39 -81 49 -101 11 -20 20 -54 20 -76 0
-23 12 -64 29 -99 76 -158 71 -128 71 -403 l0 -250 41 -88 c78 -167 120 -258
130 -275 5 -10 9 -77 9 -149 0 -140 1 -143 71 -282 16 -31 19 -60 19 -173 0
-100 4 -143 15 -162 43 -79 65 -143 70 -207 3 -38 12 -99 20 -135 28 -134 35
-178 46 -285 6 -60 15 -122 19 -137 8 -25 3 -34 -44 -85 -29 -32 -148 -168
-266 -303 -117 -135 -227 -260 -244 -279 -17 -19 -26 -31 -19 -27 7 4 78 82
160 174 81 92 150 169 153 172 3 3 37 41 75 85 39 44 72 82 75 85 5 5 83 93
595 670 1304 1472 2431 2741 2890 3256 137 154 279 314 315 355 36 41 89 99
118 129 44 45 49 48 24 15 -16 -22 -33 -56 -36 -76 -5 -30 -16 -42 -74 -79
-72 -47 -126 -102 -125 -128 0 -9 -4 -22 -9 -29 -6 -7 -3 -25 6 -47 12 -29 12
-37 1 -46 -8 -6 -11 -19 -8 -27 4 -11 2 -14 -5 -9 -7 4 -12 16 -12 28 0 17 -3
18 -15 8 -15 -12 -14 -37 5 -122 6 -27 4 -40 -6 -48 -10 -9 -10 -17 -2 -35 8
-18 8 -28 -1 -39 -7 -8 -10 -19 -7 -24 11 -18 16 -71 6 -77 -5 -3 -7 -12 -4
-19 3 -7 -2 -18 -10 -25 -13 -11 -13 -17 -4 -35 14 -26 19 -66 8 -66 -4 0 -7
-15 -6 -32 2 -18 -1 -38 -5 -44 -5 -6 -10 -26 -11 -45 -2 -19 -9 -39 -17 -45
-11 -9 -11 -17 4 -48 17 -35 17 -39 3 -47 -10 -5 -14 -17 -11 -29 3 -12 0 -20
-6 -20 -8 0 -10 -12 -7 -34 3 -19 1 -38 -4 -41 -5 -3 -6 -13 -3 -22 4 -9 -1
-19 -10 -25 -16 -8 -15 -12 3 -47 17 -33 17 -41 5 -51 -7 -6 -12 -17 -9 -24 3
-7 -2 -19 -11 -26 -14 -11 -14 -15 0 -36 13 -21 13 -24 -1 -32 -13 -7 -13 -13
-3 -36 11 -23 10 -29 -1 -36 -11 -7 -12 -14 -2 -35 11 -24 10 -29 -5 -41 -10
-7 -21 -14 -25 -14 -12 0 -9 -19 9 -57 13 -29 14 -36 3 -43 -12 -7 -12 -13 0
-34 12 -23 11 -28 -3 -39 -18 -13 -23 -48 -12 -84 5 -16 1 -25 -14 -35 -25
-15 -26 -26 -6 -64 13 -25 13 -30 -1 -45 -11 -13 -12 -19 -4 -24 9 -6 9 -10
-1 -16 -7 -4 -13 -27 -14 -52 0 -25 3 -43 7 -41 15 10 48 84 -362 -806 -67
-146 -126 -269 -131 -275 -5 -5 -9 -12 -9 -16 0 -8 1935 1938 4250 4276 267
270 994 1003 1615 1630 621 627 1233 1245 1359 1372 126 128 228 234 225 236
-20 16 -184 81 -264 106 -234 71 -372 86 -770 85 -328 -1 -468 -10 -730 -45
-536 -72 -1073 -246 -1282 -415 -23 -19 -44 -34 -48 -34 -3 0 -35 22 -70 50
-75 57 -182 121 -263 157 -496 221 -1301 351 -2437 392 -232 8 -1153 6 -1335
-3 -63 -3 -207 -11 -320 -17 -983 -49 -2026 -187 -2734 -362 -93 -22 -164 -43
-158 -45 5 -1 54 8 108 22 55 13 118 29 142 34 l43 10 34 -69 c31 -65 34 -76
37 -191 4 -137 -11 -93 137 -398 l46 -95 2 -233 c2 -244 7 -276 50 -344 12
-21 23 -41 23 -44 0 -4 11 -30 24 -58 13 -28 34 -73 46 -101 13 -27 47 -100
76 -162 l54 -112 0 -191 0 -190 88 -267 c49 -148 103 -315 121 -373 18 -58 39
-122 47 -143 8 -20 14 -54 14 -75 0 -21 6 -46 13 -57 17 -24 63 -156 72 -207
5 -27 13 -38 29 -40 11 -2 -181 -59 -427 -127 -247 -67 -450 -121 -452 -119
-2 2 -9 53 -15 113 -6 61 -22 216 -35 345 -13 129 -31 305 -39 390 -18 182
-173 1734 -181 1800 -6 61 -32 320 -45 450 -5 58 -17 171 -26 253 -9 81 -13
155 -10 163 5 14 1 15 -30 9 -63 -11 -304 -95 -392 -136 l-83 -38 -137 45
c-659 219 -1679 418 -2737 533 -243 27 -626 64 -770 75 -38 3 -124 10 -190 16
-949 76 -2196 105 -3440 79z m-6604 -3366 c-12 -20 -14 -14 -5 12 4 9 9 14 11
11 3 -2 0 -13 -6 -23z m-50 -130 c-12 -20 -14 -14 -5 12 4 9 9 14 11 11 3 -2
0 -13 -6 -23z m16009 -216 c0 -2 -15 -16 -32 -33 l-33 -29 29 33 c28 30 36 37
36 29z m-2300 -697 c-34 -11 -60 -11 -35 0 11 5 29 8 40 8 16 0 15 -2 -5 -8z
m4740 -113 c0 -2 -12 -14 -27 -28 l-28 -24 24 28 c23 25 31 32 31 24z m-71
-170 c-2 -1 -13 -9 -24 -17 -19 -14 -19 -14 -6 3 7 9 18 17 24 17 6 0 8 -1 6
-3z m-426 -2117 c-3 -11 -10 -23 -16 -27 -5 -3 -8 -2 -5 3 3 5 8 17 11 27 9
24 16 22 10 -3z m-24666 -4992 c-3 -8 -6 -5 -6 6 -1 11 2 17 5 13 3 -3 4 -12
1 -19z m1268 -5338 c10 -11 16 -20 13 -20 -3 0 -13 9 -23 20 -10 11 -16 20
-13 20 3 0 13 -9 23 -20z"/>
<path d="M6615 40429 c-200 -7 -528 -25 -625 -34 -25 -2 -76 -7 -115 -10 -986
-83 -1684 -270 -1977 -531 l-37 -33 52 -58 c119 -134 373 -423 1088 -1233
1448 -1641 1762 -1995 1770 -1998 5 -2 9 7 9 20 0 21 24 177 106 678 13 85 27
167 30 181 l5 26 170 -65 c93 -36 168 -67 166 -69 -2 -2 -22 3 -45 11 l-40 14
19 -36 c10 -20 41 -86 69 -147 27 -60 54 -117 60 -125 5 -8 19 -36 31 -63 12
-26 27 -51 34 -55 12 -7 28 -34 65 -109 12 -24 25 -43 29 -43 5 0 11 -10 15
-23 3 -13 18 -37 33 -53 32 -33 42 -49 77 -119 14 -27 46 -88 71 -135 25 -47
45 -91 45 -98 0 -8 8 -16 18 -19 23 -6 41 -36 160 -266 8 -16 20 -31 28 -34 7
-3 16 -15 20 -26 3 -12 12 -29 18 -37 7 -8 21 -35 31 -60 11 -25 36 -71 57
-103 21 -32 38 -61 38 -64 0 -4 7 -15 17 -25 21 -24 37 -50 70 -120 15 -32 33
-58 39 -58 5 0 18 -16 27 -35 9 -19 21 -35 26 -35 11 0 66 -116 76 -159 4 -17
11 -31 16 -31 6 0 21 -25 35 -55 13 -31 30 -58 38 -61 8 -3 17 -16 20 -29 5
-18 11 -22 23 -18 10 4 14 2 10 -4 -4 -6 2 -21 13 -33 11 -12 22 -32 26 -43
11 -33 72 -119 105 -146 17 -14 40 -45 51 -70 11 -26 34 -74 49 -109 16 -34
29 -65 29 -68 0 -4 11 -15 25 -26 14 -11 25 -25 25 -33 0 -7 7 -18 16 -26 8
-7 31 -47 50 -88 19 -42 39 -83 44 -91 5 -8 21 -38 36 -67 15 -29 32 -49 39
-47 16 6 28 -11 50 -70 9 -26 30 -62 45 -80 15 -17 39 -53 54 -81 36 -68 49
-89 62 -97 7 -4 20 -29 29 -56 12 -33 29 -56 56 -75 21 -16 42 -40 46 -55 3
-14 14 -40 24 -57 41 -71 33 -80 -22 -24 -30 31 -45 44 -34 30 11 -14 22 -28
25 -31 3 -3 55 -61 115 -130 60 -69 130 -149 156 -177 l47 -53 109 49 c59 27
303 138 542 246 238 107 436 193 439 190 3 -3 1 -5 -4 -5 -34 -1 -33 -19 6
-90 22 -40 40 -75 40 -78 0 -3 9 -15 19 -26 11 -12 47 -76 81 -143 34 -68 66
-123 70 -123 5 0 14 -17 20 -38 5 -22 20 -47 31 -58 12 -10 35 -48 52 -84 16
-36 44 -88 63 -116 18 -27 40 -66 48 -85 8 -19 24 -43 35 -53 11 -10 18 -23
15 -27 -3 -5 -1 -9 3 -9 5 0 14 -14 21 -32 6 -17 15 -29 18 -25 10 9 44 -12
44 -27 0 -7 9 -23 20 -36 11 -13 20 -27 20 -32 0 -4 12 -27 27 -50 14 -24 27
-52 28 -63 2 -26 27 -85 36 -85 4 0 19 -24 33 -53 14 -30 32 -59 40 -66 8 -7
33 -50 56 -97 23 -47 55 -100 72 -119 16 -19 27 -35 24 -35 -8 0 25 -52 41
-65 7 -5 30 -46 52 -89 22 -43 48 -88 58 -100 33 -38 60 -81 68 -106 4 -14 20
-42 37 -63 16 -20 35 -52 43 -70 8 -17 23 -45 35 -62 11 -16 20 -37 20 -46 0
-22 44 -107 71 -135 13 -13 24 -34 26 -46 2 -12 17 -35 34 -52 32 -34 45 -54
82 -131 13 -27 34 -59 46 -69 11 -11 21 -25 21 -32 0 -7 6 -17 13 -21 7 -4 25
-37 41 -73 15 -36 36 -72 47 -81 10 -9 34 -44 54 -77 19 -34 51 -82 71 -108
20 -26 43 -68 52 -93 8 -25 20 -53 27 -61 6 -8 22 -35 34 -60 36 -74 71 -133
91 -155 11 -12 20 -26 20 -32 0 -5 15 -25 34 -44 19 -18 33 -36 31 -39 -2 -3
10 -23 26 -45 16 -22 43 -68 60 -102 16 -34 37 -64 45 -67 7 -3 14 -11 14 -19
0 -7 13 -26 30 -42 16 -15 27 -32 24 -36 -2 -4 1 -11 6 -14 6 -4 22 -31 36
-61 13 -30 29 -54 34 -54 10 0 17 -12 83 -141 21 -41 46 -81 55 -89 24 -19 52
-65 52 -83 0 -23 69 -149 99 -182 15 -16 36 -47 45 -68 9 -20 21 -35 26 -32 5
3 14 -11 20 -30 6 -19 25 -49 42 -65 16 -17 27 -30 24 -30 -3 0 8 -23 24 -50
17 -28 30 -55 30 -59 0 -5 7 -15 17 -22 9 -8 25 -32 35 -54 11 -22 35 -64 53
-94 19 -30 32 -58 29 -62 -4 -7 241 -299 251 -299 2 0 38 39 78 86 l75 86
-184 320 c-101 176 -184 324 -184 328 0 4 -38 72 -84 151 -46 79 -377 655
-736 1279 -1356 2357 -1765 3068 -1821 3165 l-58 100 45 23 c25 13 48 22 50
19 2 -2 -14 -12 -36 -22 -22 -10 -40 -22 -40 -27 0 -15 300 -527 300 -513 1 9
24 -24 25 -35 1 -17 49 -100 65 -115 11 -10 20 -23 20 -30 0 -17 29 -75 56
-112 13 -17 24 -35 24 -39 0 -14 124 -227 157 -271 18 -23 31 -43 28 -43 -3 0
4 -19 16 -42 12 -24 24 -37 26 -30 6 17 23 15 23 -3 0 -21 59 -126 86 -154 13
-13 24 -28 24 -34 0 -6 11 -22 23 -36 13 -15 34 -52 47 -84 13 -32 33 -65 45
-73 25 -16 65 -92 65 -123 0 -11 10 -26 21 -33 17 -10 61 -87 74 -128 10 -30
33 -70 36 -62 9 25 52 -31 100 -128 12 -25 29 -52 38 -60 10 -8 23 -31 31 -50
7 -19 24 -46 37 -61 12 -14 23 -30 23 -36 0 -6 11 -20 25 -31 13 -11 29 -31
35 -46 5 -14 14 -26 19 -26 5 0 16 -19 25 -42 10 -22 35 -61 57 -86 21 -25 39
-54 39 -66 1 -12 14 -39 30 -61 16 -22 46 -71 65 -110 83 -163 89 -172 95
-148 7 31 23 17 46 -39 10 -27 22 -48 26 -48 4 0 14 -16 22 -35 8 -19 19 -35
25 -35 5 0 14 -15 20 -32 8 -23 14 -29 20 -20 10 16 24 0 36 -38 4 -14 16 -36
26 -49 11 -13 19 -29 19 -37 0 -7 5 -14 11 -16 5 -2 11 -11 13 -20 1 -10 11
-28 22 -40 33 -39 62 -84 78 -121 8 -20 31 -52 50 -72 20 -20 35 -39 34 -43
-1 -4 6 -21 15 -39 9 -18 17 -41 17 -53 0 -12 16 -37 35 -57 19 -20 35 -42 35
-50 0 -7 5 -13 10 -13 6 0 17 -12 23 -27 25 -56 59 -103 70 -96 6 3 7 1 3 -5
-4 -6 4 -18 18 -27 14 -9 35 -38 48 -63 12 -26 26 -51 30 -57 24 -29 60 -88
94 -153 21 -41 48 -81 61 -90 26 -16 73 -100 73 -128 0 -10 2 -15 5 -12 3 3
320 934 366 1076 3 9 215 -158 559 -438 305 -248 564 -461 575 -472 11 -12
-36 24 -105 78 -69 55 -145 115 -169 134 l-45 35 29 -53 c15 -28 32 -52 36
-52 5 0 22 -26 38 -58 30 -60 81 -108 81 -77 0 8 5 15 10 15 6 0 10 -6 10 -14
0 -8 6 -21 13 -28 7 -7 19 -29 27 -48 8 -19 26 -47 41 -61 15 -14 33 -43 40
-64 8 -20 26 -48 41 -61 16 -12 28 -27 28 -33 0 -6 13 -25 28 -43 15 -18 45
-58 65 -88 20 -30 53 -77 72 -105 19 -27 44 -68 55 -90 11 -22 36 -51 54 -65
19 -14 40 -36 46 -50 6 -13 20 -30 31 -38 10 -7 34 -46 54 -86 19 -40 45 -81
56 -92 12 -10 30 -37 40 -60 10 -23 38 -59 61 -81 24 -22 56 -67 73 -99 16
-32 36 -67 45 -77 14 -18 15 -18 21 5 5 21 8 18 32 -28 14 -29 44 -67 67 -86
22 -19 40 -40 40 -47 0 -6 6 -21 13 -33 12 -23 97 -143 116 -164 5 -7 17 -29
25 -49 16 -38 46 -78 124 -162 23 -26 42 -51 42 -56 0 -4 13 -25 29 -45 16
-20 33 -52 39 -70 21 -62 72 -117 72 -77 0 25 14 17 29 -17 8 -18 37 -55 64
-81 28 -27 62 -70 76 -96 47 -86 72 -119 115 -155 24 -19 51 -52 61 -73 9 -21
30 -51 45 -68 16 -18 30 -47 33 -70 4 -27 16 -49 37 -67 16 -15 30 -32 30 -38
0 -5 16 -26 35 -46 19 -19 35 -40 35 -45 0 -4 12 -21 28 -37 15 -16 32 -37 38
-47 8 -15 10 -11 6 20 l-5 38 35 -26 c19 -15 45 -49 58 -77 13 -27 27 -50 31
-50 5 0 16 -15 25 -32 9 -18 20 -35 24 -38 4 -3 15 -20 24 -39 10 -18 36 -53
59 -78 22 -24 50 -61 61 -82 32 -59 71 -114 100 -141 15 -13 36 -44 46 -68 11
-24 35 -59 55 -78 20 -19 33 -39 30 -44 -3 -5 3 -14 13 -19 10 -6 27 -31 37
-57 17 -45 17 -50 1 -77 -9 -16 -15 -32 -12 -34 3 -3 17 19 32 49 32 64 596
1132 600 1137 2 2 263 -208 581 -467 318 -258 579 -469 581 -467 1 1 -150 263
-336 581 -186 318 -837 1432 -1447 2474 -1210 2069 -1448 2476 -1655 2830
-204 348 -1104 1888 -1602 2740 -582 995 -883 1510 -1108 1895 -103 176 -353
604 -555 950 -203 347 -481 824 -620 1060 -138 237 -350 600 -470 807 l-220
377 -86 40 c-171 80 -496 175 -874 256 -557 119 -1495 239 -2185 280 -52 3
-120 7 -150 10 -361 30 -1291 43 -1795 24z m8770 -10819 c10 -11 16 -20 13
-20 -3 0 -13 9 -23 20 -10 11 -16 20 -13 20 3 0 13 -9 23 -20z"/>
<path d="M31963 40403 c26 -2 68 -2 95 0 26 2 4 3 -48 3 -52 0 -74 -1 -47 -3z"/>
<path d="M32658 40393 c23 -2 61 -2 85 0 23 2 4 4 -43 4 -47 0 -66 -2 -42 -4z"/>
<path d="M33102 40363 l78 -4 40 -87 c61 -129 62 -132 75 -132 6 0 16 5 21 10
7 7 23 -17 49 -72 21 -46 56 -119 78 -163 64 -128 83 -167 103 -213 11 -27 23
-41 31 -37 7 3 20 8 28 11 8 3 15 2 15 -4 0 -5 30 -48 68 -95 37 -46 74 -95
82 -107 8 -12 38 -52 66 -88 27 -37 68 -107 89 -155 21 -48 41 -90 45 -92 3
-2 39 3 80 11 41 8 81 14 88 14 11 0 48 -71 220 -430 38 -79 56 -107 106 -164
10 -11 50 -64 89 -116 38 -52 77 -103 86 -112 9 -9 27 -32 41 -52 28 -40 36
-42 66 -22 19 14 22 11 50 -52 16 -37 61 -130 100 -207 39 -77 91 -182 114
-233 40 -86 42 -93 26 -105 -17 -12 -14 -21 36 -128 30 -63 63 -133 73 -156
16 -36 22 -42 41 -37 19 5 27 -5 64 -83 24 -48 81 -139 127 -201 82 -110 99
-140 248 -457 20 -44 40 -82 44 -85 3 -3 26 -32 51 -65 25 -33 89 -116 143
-185 57 -72 113 -156 134 -200 138 -294 188 -402 257 -553 l26 -58 30 16 29
15 21 -46 c12 -25 20 -47 18 -48 -2 -1 -15 -8 -30 -15 l-27 -14 47 -67 c41
-59 49 -66 67 -57 17 8 16 5 -5 -18 -39 -44 -16 -26 233 172 318 255 327 262
296 229 l-26 -27 29 -59 c26 -55 30 -59 52 -51 26 10 29 6 61 -73 18 -47 18
-46 1 -46 -22 0 -27 -16 -15 -44 13 -27 24 -33 34 -16 13 20 32 9 42 -24 12
-38 9 -46 -18 -46 -15 0 -14 -8 14 -65 21 -42 35 -61 41 -55 19 19 32 10 54
-36 22 -46 22 -46 2 -51 -21 -6 -27 -28 -10 -38 6 -3 10 -1 10 4 0 6 8 11 18
11 11 0 28 -24 50 -73 71 -152 120 -232 190 -307 24 -25 100 -178 200 -400 8
-19 26 -49 39 -67 21 -29 57 -101 127 -255 21 -47 30 -57 48 -55 17 1 27 -8
44 -43 34 -71 38 -90 20 -90 -9 0 -16 -3 -16 -6 0 -7 61 -85 87 -111 6 -7 23
-38 38 -68 14 -31 30 -53 34 -51 19 12 154 -176 207 -287 24 -51 53 -109 64
-130 20 -36 19 -64 -1 -52 -15 10 -9 -9 11 -33 11 -13 24 -21 29 -18 10 6 34
-54 29 -71 -2 -5 8 -33 22 -62 20 -44 28 -52 47 -48 13 2 27 -1 31 -7 5 -6 -5
-81 -24 -176 -18 -91 -32 -172 -31 -180 2 -8 12 32 24 90 12 58 106 499 208
980 221 1041 235 1104 640 3020 173 822 340 1610 370 1750 125 589 256 1216
258 1228 2 16 -65 44 -263 112 -653 222 -1766 431 -2990 560 -107 11 -211 22
-230 25 -19 2 -69 7 -110 10 -41 4 -86 8 -100 10 -14 2 -61 6 -105 10 -44 3
-96 8 -115 10 -19 2 -71 6 -115 10 -81 6 -131 10 -240 20 -33 2 -96 7 -140 10
-44 3 -105 8 -135 10 -30 3 -98 7 -150 10 -52 3 -120 7 -150 10 -30 2 -104 7
-165 10 -60 3 -146 7 -190 10 -98 5 -255 13 -395 20 -120 6 -657 24 -680 23
-8 0 -168 1 -355 4 -187 2 -305 3 -263 1z"/>
<path d="M47360 36736 c0 -2 8 -10 18 -17 15 -13 16 -12 3 4 -13 16 -21 21
-21 13z"/>
<path d="M47400 36707 c0 -3 12 -12 26 -22 15 -9 23 -12 20 -6 -7 11 -46 35
-46 28z"/>
<path d="M72461 35604 c0 -11 3 -14 6 -6 3 7 2 16 -1 19 -3 4 -6 -2 -5 -13z"/>
<path d="M67931 35555 c0 -24 9 -60 24 -90 29 -60 32 -49 6 31 -10 33 -21 68
-24 79 -2 11 -5 2 -6 -20z"/>
<path d="M68100 34919 c0 -15 7 -40 15 -55 l16 -29 -7 40 c-9 53 -23 80 -24
44z"/>
<path d="M68201 34492 c-1 -51 33 -151 52 -152 4 0 4 8 -1 18 -6 9 -13 35 -16
58 -4 23 -13 61 -21 85 l-14 44 0 -53z"/>
<path d="M9220 33765 c19 -19 36 -35 39 -35 3 0 -10 16 -29 35 -19 19 -36 35
-39 35 -3 0 10 -16 29 -35z"/>
<path d="M68370 33647 c0 -86 3 -98 35 -164 19 -39 35 -76 35 -82 0 -5 5 -13
12 -17 8 -5 9 0 4 17 -4 13 -16 67 -26 119 -36 186 -44 220 -52 220 -4 0 -8
-42 -8 -93z"/>
<path d="M68471 33183 c-1 -90 2 -107 24 -151 14 -28 25 -55 25 -60 0 -6 5
-14 11 -18 7 -4 9 0 5 14 -4 11 -16 71 -27 134 -35 190 -37 194 -38 81z"/>
<path d="M38481 32384 c0 -11 3 -14 6 -6 3 7 2 16 -1 19 -3 4 -6 -2 -5 -13z"/>
<path d="M38472 32340 c0 -14 2 -19 5 -12 2 6 2 18 0 25 -3 6 -5 1 -5 -13z"/>
<path d="M38462 32290 c0 -14 2 -19 5 -12 2 6 2 18 0 25 -3 6 -5 1 -5 -13z"/>
<path d="M38451 32244 c0 -11 3 -14 6 -6 3 7 2 16 -1 19 -3 4 -6 -2 -5 -13z"/>
<path d="M38441 32194 c0 -11 3 -14 6 -6 3 7 2 16 -1 19 -3 4 -6 -2 -5 -13z"/>
<path d="M38432 32150 c0 -14 2 -19 5 -12 2 6 2 18 0 25 -3 6 -5 1 -5 -13z"/>
<path d="M68294 30968 l-29 -33 33 29 c17 17 32 31 32 33 0 8 -8 1 -36 -29z"/>
<path d="M68129 30783 c-13 -16 -12 -17 4 -4 9 7 17 15 17 17 0 8 -8 3 -21
-13z"/>
<path d="M25115 30380 c28 -10 57 -18 65 -18 8 0 -7 8 -35 18 -27 10 -57 18
-65 18 -8 0 8 -8 35 -18z"/>
<path d="M25238 30341 c23 -9 40 -20 36 -24 -8 -8 -14 -44 -18 -115 -2 -29 -6
-56 -9 -59 -4 -3 3 -23 13 -44 11 -21 20 -45 20 -53 0 -9 8 -31 17 -51 l17
-35 -34 -35 -33 -34 18 -40 c9 -22 15 -47 12 -56 -7 -17 22 -87 34 -80 4 3 10
45 14 95 4 50 11 92 15 95 7 4 60 -92 60 -109 0 -3 -10 -14 -22 -26 l-22 -20
22 -42 c13 -26 18 -46 12 -53 -6 -7 -2 -29 8 -58 16 -46 16 -47 -4 -68 -21
-21 -21 -21 -2 -61 11 -22 17 -46 14 -54 -3 -8 12 -50 33 -94 22 -44 37 -87
34 -98 -2 -10 2 -36 11 -56 8 -20 13 -42 10 -49 -2 -8 2 -27 11 -43 20 -39 19
-57 -5 -79 -24 -22 -25 -31 -5 -69 8 -15 15 -37 15 -47 0 -11 7 -36 15 -56 13
-31 13 -38 1 -52 -12 -14 -12 -21 3 -56 10 -22 27 -63 38 -91 l20 -52 -29 -29
-29 -29 23 -42 c21 -38 22 -42 6 -58 -15 -15 -15 -19 3 -51 10 -18 19 -38 19
-42 0 -5 18 -48 40 -95 22 -47 40 -89 40 -92 0 -4 -7 -12 -16 -19 -15 -10 -14
-15 6 -54 19 -39 20 -44 6 -60 -14 -16 -14 -21 5 -61 12 -25 30 -64 41 -89
l19 -44 -31 -32 -31 -32 41 -89 c22 -49 50 -108 60 -131 11 -24 17 -49 14 -57
-3 -9 0 -32 7 -53 7 -21 12 -45 11 -54 -2 -9 6 -32 18 -51 l20 -34 -30 -29
c-29 -28 -29 -28 -13 -64 8 -20 17 -45 18 -56 2 -11 9 -33 15 -50 7 -16 14
-39 15 -50 2 -11 19 -55 40 -98 28 -60 34 -81 26 -91 -9 -11 -5 -30 19 -82 17
-38 35 -77 41 -88 9 -15 4 -25 -31 -61 l-41 -42 42 -87 c30 -64 38 -90 30 -96
-9 -5 -1 -31 29 -93 35 -73 39 -88 29 -105 -10 -17 -9 -25 6 -48 l18 -28 19
38 c11 21 21 36 24 33 4 -4 -183 -342 -648 -1172 -151 -268 -183 -333 -174
-346 6 -9 306 -346 666 -750 361 -404 707 -792 770 -863 190 -214 535 -602
701 -787 85 -96 441 -493 789 -884 1149 -1288 1272 -1426 1578 -1767 166 -186
302 -341 302 -344 0 -4 -8 0 -17 7 -16 13 -17 12 -4 -4 8 -9 16 -15 19 -12 7
7 72 -55 72 -69 0 -5 -15 3 -32 20 l-33 29 29 -32 c16 -18 32 -30 35 -28 6 7
81 -66 81 -79 0 -5 -12 1 -27 15 -28 24 -28 23 1 -8 16 -18 32 -30 36 -28 10
6 70 -58 656 -715 1118 -1252 1569 -1756 1979 -2215 231 -259 643 -720 915
-1025 272 -305 556 -622 630 -705 74 -83 154 -173 178 -199 23 -27 42 -46 42
-43 0 6 -55 148 -304 782 -76 193 -955 2429 -1953 4970 -998 2541 -1894 4820
-1990 5065 -96 245 -194 495 -218 555 -51 129 -821 2089 -1232 3135 -157 399
-314 799 -350 890 -231 589 -243 619 -243 582 0 -10 -286 -521 -1202 -2147
-540 -959 -652 -1155 -657 -1155 -4 0 -32 75 -63 168 -59 177 -178 523 -593
1737 -141 413 -288 842 -327 955 -38 113 -97 284 -130 380 -33 96 -64 191 -70
211 -8 30 -16 38 -48 48 -55 16 -61 12 -12 -8z m822 -3856 c0 -5 -5 -3 -10 5
-5 8 -10 20 -10 25 0 6 5 3 10 -5 5 -8 10 -19 10 -25z"/>
<path d="M47419 29453 c-13 -16 -12 -17 4 -4 16 13 21 21 13 21 -2 0 -10 -8
-17 -17z"/>
<path d="M13580 28796 c0 -2 8 -10 18 -17 15 -13 16 -12 3 4 -13 16 -21 21
-21 13z"/>
<path d="M13675 28690 c10 -11 20 -20 23 -20 3 0 -3 9 -13 20 -10 11 -20 20
-23 20 -3 0 3 -9 13 -20z"/>
<path d="M13759 28596 c33 -39 41 -57 41 -88 0 -25 15 -70 40 -124 22 -47 40
-88 40 -91 0 -3 -48 -65 -106 -137 l-106 -132 1 -137 c2 -148 1 -143 96 -342
20 -41 25 -70 29 -165 4 -110 6 -120 45 -204 36 -78 41 -98 41 -161 0 -129 3
-133 381 -513 185 -185 976 -985 1759 -1777 783 -792 1692 -1710 2020 -2040
539 -542 2148 -2167 4175 -4215 2975 -3006 4731 -4772 4634 -4661 -89 101
-527 597 -884 1001 -264 299 -482 544 -885 1001 -123 140 -412 466 -640 724
-229 259 -606 686 -840 950 -233 264 -456 516 -495 560 -39 44 -175 197 -301
340 -126 143 -296 336 -379 430 -475 536 -709 801 -1680 1900 -340 385 -669
756 -730 825 -61 69 -664 751 -1340 1515 -676 765 -1276 1444 -1335 1510 -58
66 -195 221 -305 345 -109 124 -235 266 -279 316 -45 49 -162 182 -261 294
-99 112 -270 306 -380 430 -110 124 -301 340 -425 480 -124 140 -297 336 -385
435 -88 100 -295 333 -460 520 -165 186 -336 380 -381 430 -44 49 -170 191
-279 315 -236 267 -296 331 -307 324 -4 -3 -6 1 -3 8 2 7 -32 51 -77 98 -44
47 -62 63 -39 36z m289 -1726 c39 -84 57 -170 34 -170 -4 0 -24 17 -44 38 -36
36 -37 38 -40 130 -2 50 -1 92 2 92 3 0 24 -41 48 -90z"/>
<path d="M47691 28213 c0 -45 3 -85 9 -88 12 -7 12 59 1 125 -8 41 -9 37 -10
-37z"/>
<path d="M54050 27936 c0 -2 8 -10 18 -17 15 -13 16 -12 3 4 -13 16 -21 21
-21 13z"/>
<path d="M54090 27906 c0 -2 8 -10 18 -17 15 -13 16 -12 3 4 -13 16 -21 21
-21 13z"/>
<path d="M54130 27877 c0 -3 18 -20 40 -37 22 -17 40 -29 40 -27 0 3 -18 20
-40 37 -22 17 -40 29 -40 27z"/>
<path d="M45420 27686 c0 -2 8 -10 18 -17 15 -13 16 -12 3 4 -13 16 -21 21
-21 13z"/>
<path d="M45520 27566 c0 -2 8 -10 18 -17 15 -13 16 -12 3 4 -13 16 -21 21
-21 13z"/>
<path d="M45565 27510 c10 -11 20 -20 23 -20 3 0 -3 9 -13 20 -10 11 -20 20
-23 20 -3 0 3 -9 13 -20z"/>
<path d="M45610 27455 c13 -14 26 -25 28 -25 3 0 -5 11 -18 25 -13 14 -26 25
-28 25 -3 0 5 -11 18 -25z"/>
<path d="M53349 23083 l-24 -28 28 24 c25 23 32 31 24 31 -2 0 -14 -12 -28
-27z"/>
<path d="M53249 22973 l-24 -28 28 24 c25 23 32 31 24 31 -2 0 -14 -12 -28
-27z"/>
<path d="M47411 19439 c-17 -45 -30 -84 -28 -86 2 -2 18 34 35 79 17 45 30 84
28 86 -2 2 -18 -34 -35 -79z"/>
<path d="M47366 19325 c-9 -26 -7 -32 5 -12 6 10 9 21 6 23 -2 3 -7 -2 -11
-11z"/>
<path d="M47346 19275 c-9 -26 -7 -32 5 -12 6 10 9 21 6 23 -2 3 -7 -2 -11
-11z"/>
<path d="M47276 19095 c-9 -26 -7 -32 5 -12 6 10 9 21 6 23 -2 3 -7 -2 -11
-11z"/>
<path d="M30262 19025 c23 -25 26 -37 23 -75 l-4 -45 9 45 c9 43 8 46 -22 75
l-33 30 27 -30z"/>
<path d="M30272 18870 c0 -19 2 -27 5 -17 2 9 2 25 0 35 -3 9 -5 1 -5 -18z"/>
<path d="M30262 18810 c0 -14 2 -19 5 -12 2 6 2 18 0 25 -3 6 -5 1 -5 -13z"/>
<path d="M30252 18750 c0 -14 2 -19 5 -12 2 6 2 18 0 25 -3 6 -5 1 -5 -13z"/>
<path d="M30241 18684 c0 -11 3 -14 6 -6 3 7 2 16 -1 19 -3 4 -6 -2 -5 -13z"/>
<path d="M27605 17680 c10 -11 20 -20 23 -20 3 0 -3 9 -13 20 -10 11 -20 20
-23 20 -3 0 3 -9 13 -20z"/>
<path d="M27650 17646 c0 -2 8 -10 18 -17 15 -13 16 -12 3 4 -13 16 -21 21
-21 13z"/>
<path d="M27725 17580 c10 -11 20 -20 23 -20 3 0 -3 9 -13 20 -10 11 -20 20
-23 20 -3 0 3 -9 13 -20z"/>
<path d="M27780 17535 c13 -14 26 -25 28 -25 3 0 -5 11 -18 25 -13 14 -26 25
-28 25 -3 0 5 -11 18 -25z"/>
<path d="M55223 17493 c-50 -85 -65 -113 -59 -113 2 0 17 24 34 53 16 28 40
69 52 90 12 20 20 37 17 37 -3 0 -23 -30 -44 -67z"/>
<path d="M30050 17461 c0 -18 -250 -1552 -255 -1569 -3 -7 -67 39 -162 119
-840 698 -1246 1029 -1256 1023 -7 -4 -9 -3 -4 1 4 5 0 17 -10 27 -18 20 -38
25 -27 6 4 -7 3 -8 -5 -4 -6 4 -9 11 -6 15 8 13 -42 54 -56 46 -7 -5 -10 -4
-5 3 5 9 -51 58 -334 291 -30 25 -48 37 -40 28 8 -9 89 -79 180 -155 178 -149
164 -131 258 -332 21 -47 54 -118 73 -158 29 -63 35 -71 46 -57 11 17 33 13
33 -6 0 -9 46 -112 78 -177 9 -18 36 -52 60 -75 40 -39 44 -41 56 -24 13 17
28 23 24 10 -5 -19 46 -113 78 -143 24 -22 61 -85 111 -189 41 -86 78 -158 81
-161 2 -3 7 1 9 8 7 19 19 14 32 -14 11 -25 12 -26 25 -8 13 17 18 11 56 -69
34 -70 45 -85 56 -76 11 9 19 -1 39 -46 22 -47 29 -54 41 -44 8 6 16 10 18 8
4 -4 17 -33 77 -166 16 -35 24 -63 19 -63 -6 0 -10 4 -10 10 0 5 -9 14 -21 20
l-20 11 20 -38 c11 -21 39 -78 62 -128 22 -49 54 -117 69 -150 16 -33 34 -72
39 -87 6 -16 15 -28 21 -28 5 0 10 -6 11 -12 0 -7 10 -34 22 -60 l23 -47 19
30 c23 34 35 37 42 9 9 -36 21 -21 28 38 4 31 9 52 12 46 2 -6 -13 -114 -32
-240 -20 -126 -45 -283 -55 -349 -11 -66 -51 -318 -90 -560 -152 -944 -179
-1128 -161 -1075 5 14 9 38 10 55 1 29 2 28 27 -20 15 -28 28 -51 29 -53 1 -1
19 22 40 53 21 30 42 52 46 48 3 -5 19 -37 35 -73 15 -36 33 -72 39 -80 6 -8
17 -28 24 -45 12 -29 13 -29 27 -11 7 11 16 18 18 15 2 -2 28 -55 57 -117 51
-109 53 -113 69 -92 15 20 16 19 43 -35 15 -30 24 -55 21 -55 -3 0 -17 9 -31
20 -15 11 -28 19 -30 16 -2 -2 14 -39 35 -82 22 -44 43 -90 49 -103 9 -24 9
-24 39 17 16 23 31 42 34 42 7 0 13 -12 85 -158 33 -67 62 -122 65 -122 3 1
25 27 48 60 24 33 48 58 52 55 5 -3 14 -22 20 -43 7 -20 23 -48 36 -62 12 -14
30 -42 39 -62 16 -40 32 -48 41 -23 10 26 20 17 45 -40 23 -54 24 -54 44 -35
20 19 20 18 44 -36 14 -30 28 -54 32 -54 4 0 17 16 30 36 l22 37 16 -32 c16
-29 17 -30 29 -11 17 27 30 25 38 -5 6 -26 24 -35 24 -12 1 13 77 -138 97
-191 6 -18 15 -32 20 -32 4 0 19 17 33 38 47 70 47 70 79 2 25 -52 31 -59 39
-43 13 22 8 29 71 -101 l53 -109 37 41 c39 44 51 51 51 28 0 -24 22 -30 36
-11 13 17 15 16 28 -15 13 -33 14 -33 25 -11 17 30 31 23 50 -26 21 -53 30
-62 42 -40 16 28 28 20 52 -33 23 -52 34 -61 43 -35 10 25 20 17 45 -35 13
-27 27 -50 30 -50 8 0 59 62 59 72 0 18 21 6 30 -17 21 -55 62 -135 69 -135 4
0 27 27 52 61 35 49 45 57 50 42 13 -44 45 -103 55 -103 6 0 22 -22 35 -50 13
-27 28 -50 34 -50 6 0 22 -23 36 -51 l25 -51 34 46 c19 25 38 46 41 46 4 0 10
-11 13 -25 8 -33 17 -31 41 5 11 16 24 29 29 27 5 -2 17 -23 26 -47 20 -51 33
-59 52 -31 14 20 16 18 42 -40 l27 -61 22 29 c50 65 51 65 66 30 29 -68 65
-137 70 -137 4 0 14 12 22 26 l16 26 14 -30 c13 -29 14 -30 30 -11 16 18 16
18 27 -6 14 -30 28 -32 37 -5 10 31 18 24 48 -43 26 -56 30 -60 38 -39 11 29
22 28 39 -3 13 -24 15 -24 24 -8 5 10 13 22 18 28 5 5 15 19 22 29 16 23 32
15 41 -22 3 -15 13 -36 21 -47 15 -20 16 -19 44 15 16 19 30 44 32 55 3 19 51
-90 221 -495 35 -85 148 -353 250 -595 101 -242 199 -474 216 -516 l32 -77
282 -7 c354 -9 367 -8 386 26 14 26 14 28 -19 55 -18 16 -38 32 -44 36 -8 5
-7 13 2 25 23 33 24 44 8 62 -9 10 -14 25 -11 34 4 9 -2 21 -16 31 -19 13 -20
17 -9 31 17 20 5 29 -53 46 -33 9 -38 14 -33 32 3 13 -1 29 -11 40 -16 16 -16
20 -1 45 17 28 16 28 -23 66 -27 25 -38 43 -34 55 3 10 -3 25 -14 35 -18 16
-19 21 -6 40 13 20 13 23 -5 36 -11 8 -20 19 -20 26 0 6 -9 19 -20 29 -16 14
-18 21 -8 32 10 12 7 18 -12 33 l-23 18 21 27 22 28 -45 39 c-38 33 -44 43
-33 55 10 12 8 18 -12 33 -23 17 -23 19 -6 44 17 27 17 27 -18 64 -40 40 -43
53 -21 76 8 8 15 17 15 20 0 3 -28 32 -62 65 l-62 59 27 35 27 36 -42 20 c-24
11 -67 42 -96 68 l-53 49 22 27 c20 27 20 57 -1 57 -5 0 -10 11 -10 24 0 14
-9 31 -20 39 -18 12 -18 16 -6 26 12 10 21 9 46 -4 18 -9 34 -14 38 -11 3 3 3
7 1 9 -37 25 -99 81 -99 89 0 5 14 28 31 49 17 21 27 39 22 39 -4 0 -25 16
-46 36 -32 30 -36 38 -26 51 11 12 9 18 -9 32 -16 11 -21 23 -16 34 5 13 -5
29 -35 56 l-41 38 21 27 21 27 -57 52 c-32 29 -86 66 -121 82 l-64 30 31 43
31 42 -23 19 c-19 15 -21 21 -11 34 11 13 6 21 -33 52 -37 31 -43 40 -33 52 9
12 4 21 -32 52 l-43 37 19 32 c18 32 18 32 -4 48 -18 12 -20 19 -11 30 9 11 3
21 -31 51 -27 25 -40 43 -37 55 3 11 -10 32 -36 57 -34 34 -39 42 -28 55 8 9
10 16 5 16 -5 1 -27 16 -48 36 -31 26 -37 37 -28 46 9 9 7 17 -8 33 -20 21
-19 55 1 55 32 0 -52 99 -85 100 -6 0 -26 14 -44 31 -23 21 -31 35 -27 49 3
11 0 22 -9 27 -8 4 -16 14 -18 22 -2 11 -61 71 -87 88 -3 2 1 9 7 15 20 20 14
37 -23 69 -63 56 -38 85 38 45 26 -14 47 -22 47 -18 0 4 -36 42 -80 85 -44 42
-80 79 -80 82 0 4 12 22 27 42 l27 35 -42 35 c-32 26 -41 40 -36 55 4 13 -2
26 -19 41 -149 133 -147 131 -133 147 27 31 25 39 -16 79 -40 38 -42 41 -25
59 9 10 17 23 17 28 0 13 -110 117 -138 129 -35 16 -203 186 -195 199 3 6 12
18 20 28 13 14 10 20 -26 49 -23 18 -41 37 -41 43 0 7 -9 18 -20 26 -11 8 -20
18 -20 23 0 5 -10 17 -22 27 -16 13 -20 22 -13 29 7 7 24 1 55 -19 59 -39 71
-27 18 20 -40 35 -42 40 -30 61 13 20 11 25 -28 59 -32 28 -41 43 -36 56 5 13
-4 28 -35 55 -37 33 -41 40 -29 54 11 14 8 20 -25 50 -21 19 -42 35 -47 35 -6
0 -5 7 2 15 14 16 10 21 -48 62 -18 12 -22 22 -17 44 5 22 2 30 -15 39 -14 8
-19 17 -15 30 6 19 -12 40 -108 127 -44 39 -58 63 -38 63 5 0 12 8 15 17 5 12
-5 28 -34 55 -23 21 -39 42 -36 46 3 5 -16 22 -42 38 -81 51 -217 176 -214
197 1 12 -13 32 -38 54 -28 25 -39 41 -35 53 6 19 -40 64 -55 55 -8 -5 -53 95
-46 102 2 2 9 -10 16 -27 7 -16 16 -27 21 -24 16 9 9 28 -21 64 -21 24 -29 29
-25 15 15 -59 -73 149 -665 1570 -117 281 -217 514 -221 520 -6 5 -9 4 -9 -4z
m990 -2311 c17 -40 28 -75 26 -77 -2 -2 -16 27 -31 64 -37 91 -39 99 -32 92 4
-3 20 -38 37 -79z m-1121 -2662 c18 -40 40 -81 48 -90 9 -10 13 -18 9 -18 -9
0 -145 90 -151 100 -5 8 43 80 54 80 4 0 22 -33 40 -72z m160 -139 l19 25 26
-52 c15 -29 24 -52 22 -52 -17 0 -135 84 -129 92 3 6 14 1 24 -13 l19 -24 19
24z m119 -114 c-2 -2 -11 2 -21 10 -11 8 -15 19 -11 30 6 15 9 14 21 -10 8
-15 13 -28 11 -30z m99 -42 c16 -34 14 -36 -15 -12 -13 10 -21 23 -17 29 10
16 19 12 32 -17z m97 -82 c-9 -10 -36 28 -29 39 6 9 12 6 21 -11 7 -13 10 -26
8 -28z m107 -36 c9 -19 13 -35 8 -35 -5 0 -9 5 -9 10 0 6 -6 10 -14 10 -19 0
-28 14 -20 34 9 24 17 19 35 -19z m87 -64 c3 -8 -1 -12 -9 -9 -7 2 -15 10 -17
17 -3 8 1 12 9 9 7 -2 15 -10 17 -17z m205 -121 c5 -18 3 -19 -11 -8 -9 7 -19
13 -21 15 -1 1 0 7 4 12 9 15 21 6 28 -19z m397 -231 c0 -6 -4 -7 -10 -4 -5 3
-10 11 -10 16 0 6 5 7 10 4 6 -3 10 -11 10 -16z m1629 -834 c0 -5 -9 7 -20 28
-11 20 -23 37 -28 37 -5 0 -6 10 -3 23 5 19 9 15 28 -28 13 -27 23 -54 23 -60z"/>
<path d="M44743 16108 c-77 -117 -313 -474 -523 -793 -211 -319 -521 -789
-690 -1045 -169 -256 -571 -865 -895 -1355 -323 -489 -814 -1234 -1092 -1655
-277 -421 -583 -884 -679 -1030 -96 -146 -513 -778 -927 -1405 -413 -627 -837
-1269 -942 -1427 -427 -645 -506 -768 -499 -780 4 -6 3 -8 -3 -5 -14 9 -46
-40 -37 -55 4 -6 3 -8 -3 -5 -13 8 -46 -40 -38 -54 4 -5 2 -8 -4 -7 -8 2 -387
-557 -435 -642 -32 -56 33 37 164 235 84 127 156 234 160 238 7 8 11 -11 11
-55 0 -18 5 -28 14 -28 20 0 38 -38 31 -66 -4 -14 -20 -54 -36 -90 -17 -35
-30 -67 -30 -70 0 -3 -8 -22 -17 -42 -16 -34 -16 -36 10 -85 14 -27 24 -53 22
-57 -2 -4 -25 -4 -51 0 l-46 7 6 -39 c4 -22 13 -52 21 -67 11 -23 11 -31 0
-57 -37 -77 -95 -219 -95 -229 0 -13 43 -25 86 -25 29 0 30 -10 5 -59 -17 -31
-18 -41 -7 -62 24 -47 -21 -104 -52 -66 -6 7 -25 50 -41 95 -28 76 -60 144
-61 132 -1 -19 118 -299 125 -293 4 4 5 2 1 -5 -4 -7 20 -85 58 -180 35 -92
112 -288 170 -437 57 -148 142 -367 189 -485 46 -118 157 -402 247 -630 89
-228 211 -540 271 -692 60 -153 159 -405 220 -560 61 -156 141 -362 179 -458
38 -96 116 -294 173 -440 58 -146 146 -372 198 -503 51 -130 95 -237 98 -237
3 0 81 193 173 428 92 235 248 634 348 887 195 496 674 1717 1028 2620 121
308 447 1138 725 1845 278 707 609 1551 737 1875 291 742 347 883 463 1180 52
132 239 607 415 1055 320 815 458 1167 742 1890 84 212 242 615 352 895 110
281 238 606 284 723 l83 212 -74 353 c-359 1704 -381 1807 -388 1813 -2 2 -67
-91 -144 -208z"/>
<path d="M29030 15773 c0 -4 9 -19 19 -32 12 -16 21 -20 25 -12 4 6 4 15 1 21
-9 14 -45 32 -45 23z"/>
<path d="M29182 15608 c17 -35 33 -65 35 -68 5 -6 33 30 33 41 0 9 -82 89 -92
89 -3 0 7 -28 24 -62z"/>
<path d="M29295 12820 c-4 -28 -5 -53 -2 -56 2 -3 7 19 11 47 4 28 5 53 3 56
-3 2 -8 -19 -12 -47z"/>
<path d="M29440 12732 c0 -18 12 -42 21 -42 14 0 11 20 -6 36 -8 9 -15 11 -15
6z"/>
<path d="M29600 12610 c0 -5 5 -10 10 -10 6 0 10 5 10 10 0 6 -4 10 -10 10 -5
0 -10 -4 -10 -10z"/>
<path d="M29670 12562 c0 -5 6 -17 14 -28 14 -18 15 -18 22 0 4 11 2 21 -7 27
-18 11 -29 11 -29 1z"/>
<path d="M31428 9183 c7 -3 16 -2 19 1 4 3 -2 6 -13 5 -11 0 -14 -3 -6 -6z"/>
<path d="M31488 9183 c6 -2 18 -2 25 0 6 3 1 5 -13 5 -14 0 -19 -2 -12 -5z"/>
<path d="M31713 9173 c26 -2 68 -2 95 0 26 2 4 3 -48 3 -52 0 -74 -1 -47 -3z"/>
<path d="M31933 9163 c9 -2 25 -2 35 0 9 3 1 5 -18 5 -19 0 -27 -2 -17 -5z"/>
<path d="M32013 9163 c15 -2 37 -2 50 0 12 2 0 4 -28 4 -27 0 -38 -2 -22 -4z"/>
<path d="M32228 9153 c12 -2 32 -2 45 0 12 2 2 4 -23 4 -25 0 -35 -2 -22 -4z"/>
<path d="M37946 5767 c3 -10 9 -15 12 -12 3 3 0 11 -7 18 -10 9 -11 8 -5 -6z"/>
<path d="M37991 5660 c0 -8 4 -22 9 -30 12 -18 12 -2 0 25 -6 13 -9 15 -9 5z"/>
<path d="M38040 5539 c0 -4 7 -22 15 -40 8 -19 14 -27 14 -19 0 14 -28 72 -29
59z"/>
</g>
</svg>
